<svg width="21" height="20" viewBox="0 0 21 20" fill="none" xmlns="http://www.w3.org/2000/svg">
<path fill-rule="evenodd" clip-rule="evenodd" d="M6.54183 4.16675C6.54183 3.13121 5.70236 2.29175 4.66683 2.29175C3.6313 2.29175 2.79183 3.13121 2.79183 4.16675C2.79183 5.20228 3.6313 6.04175 4.66683 6.04175C5.70236 6.04175 6.54183 5.20228 6.54183 4.16675ZM4.66683 1.04175C6.39272 1.04175 7.79183 2.44086 7.79183 4.16675C7.79183 4.50449 7.73825 4.82973 7.63912 5.13441L13.6965 8.3225C14.2513 7.45226 15.225 6.87508 16.3335 6.87508C18.0594 6.87508 19.4585 8.27419 19.4585 10.0001C19.4585 11.726 18.0594 13.1251 16.3335 13.1251C15.3944 13.1251 14.552 12.7108 13.9791 12.0551L7.75191 15.3326C7.77818 15.4956 7.79183 15.6629 7.79183 15.8334C7.79183 17.5593 6.39272 18.9584 4.66683 18.9584C2.94094 18.9584 1.54183 17.5593 1.54183 15.8334C1.54183 14.1075 2.94094 12.7084 4.66683 12.7084C5.77535 12.7084 6.74906 13.2856 7.30383 14.1558L13.3612 10.9677C13.2621 10.6631 13.2085 10.3378 13.2085 10.0001C13.2085 9.8296 13.2221 9.6623 13.2484 9.49923L7.02118 6.22173C6.44833 6.87749 5.60596 7.29175 4.66683 7.29175C2.94094 7.29175 1.54183 5.89264 1.54183 4.16675C1.54183 2.44086 2.94094 1.04175 4.66683 1.04175ZM16.3335 8.12508C17.369 8.12508 18.2085 8.96455 18.2085 10.0001C18.2085 11.0356 17.369 11.8751 16.3335 11.8751C15.298 11.8751 14.4585 11.0356 14.4585 10.0001C14.4585 8.96455 15.298 8.12508 16.3335 8.12508ZM4.66683 13.9584C5.70236 13.9584 6.54183 14.7979 6.54183 15.8334C6.54183 16.8689 5.70236 17.7084 4.66683 17.7084C3.6313 17.7084 2.79183 16.8689 2.79183 15.8334C2.79183 14.7979 3.6313 13.9584 4.66683 13.9584Z" fill="#858C97"/>
</svg>
