<svg width="18" height="14" viewBox="0 0 18 14" fill="none" xmlns="http://www.w3.org/2000/svg">
<path d="M17.8132 1.63925C17.4365 0.66801 16.669 0.821316 15.8374 0.986103C15.3407 1.08962 13.1316 1.73625 9.63624 5.42192C8.18573 6.95156 7.22887 8.17104 6.59888 9.10107C6.21404 8.62857 5.77314 8.12305 5.31013 7.65985C3.8862 6.2363 2.29825 5.25868 2.2315 5.21759C1.56513 4.81024 0.695214 5.01985 0.286699 5.6857C-0.1213 6.35155 0.087665 7.22289 0.753001 7.63179C0.76661 7.64037 2.13024 8.48346 3.30825 9.66179C4.50961 10.8633 5.5981 12.4881 5.60881 12.5039C5.87382 12.9023 6.31878 13.1348 6.78689 13.1348C6.86725 13.1348 6.94838 13.128 7.02913 13.114C7.5816 13.0181 8.02539 12.605 8.16071 12.0607C8.16412 12.0476 8.72543 10.4963 11.6905 7.37013C14.0788 4.85139 15.6714 4.05087 16.2232 3.82881C16.2285 3.82791 16.2323 3.82752 16.2395 3.82604C16.2368 3.82668 16.2574 3.8172 16.2906 3.80224C16.3854 3.7667 16.4361 3.75309 16.439 3.75238C16.4118 3.75915 16.3977 3.76083 16.3977 3.76083L16.3968 3.75593C16.6521 3.64455 17.1302 3.43887 17.1406 3.43448C17.8604 3.13877 18.0944 2.36457 17.8132 1.63925Z" fill="#448C74"/>
</svg>
