<svg width="40" height="36" viewBox="0 0 40 36" fill="none" xmlns="http://www.w3.org/2000/svg">
<path d="M1.7276 25.5001C1.21683 26.3857 0.916576 27.3769 0.850062 28.3971C0.783549 29.4173 0.952558 30.4391 1.34402 31.3835C1.73548 32.328 2.33891 33.1697 3.10764 33.8437C3.87638 34.5177 4.78982 35.0058 5.77734 35.2704C6.76486 35.5349 7.8 35.5689 8.80272 35.3695C9.80544 35.1701 10.7489 34.7428 11.5601 34.1206C12.3713 33.4983 13.0285 32.6979 13.4809 31.7811C13.9334 30.8643 14.1689 29.8558 14.1693 28.8334C14.1698 27.3654 13.6858 25.9382 12.7924 24.7734C11.8989 23.6085 10.6459 22.7712 9.22787 22.3913C7.80984 22.0114 6.30606 22.1101 4.94991 22.6722C3.59375 23.2344 2.46105 24.2284 1.7276 25.5001Z" fill="#EDCB50"/>
<path d="M11.7344 8.1667L4.23438 21.1667C5.42383 20.6595 6.71498 20.4361 8.00568 20.5142C9.29638 20.5922 10.5512 20.9695 11.6709 21.6163C12.7906 22.263 13.7444 23.1615 14.4569 24.2405C15.1694 25.3196 15.621 26.5496 15.776 27.8333L19.0427 22.1667C12.8427 11.45 11.9427 10.425 11.7344 8.1667Z" fill="#EDCB50"/>
<path d="M38.2784 25.5C37.8534 24.7833 25.6701 3.6083 25.4284 3.29996C24.4255 1.9011 22.9204 0.944362 21.2281 0.629975C19.5358 0.315587 17.7875 0.667919 16.3491 1.61323C14.9107 2.55855 13.8936 4.02357 13.5108 5.70171C13.1279 7.37984 13.409 9.14101 14.2951 10.6166C14.2118 10.6166 13.8784 9.89996 26.7284 32.1666C27.1662 32.925 27.749 33.5898 28.4437 34.1229C29.1383 34.656 29.9311 35.0471 30.7769 35.2739C31.6227 35.5006 32.5049 35.5585 33.373 35.4443C34.2412 35.3301 35.0784 35.046 35.8368 34.6083C36.5952 34.1706 37.2599 33.5877 37.793 32.8931C38.3262 32.1984 38.7173 31.4056 38.944 30.5598C39.1707 29.714 39.2287 28.8319 39.1145 27.9637C39.0003 27.0955 38.7162 26.2583 38.2784 25.5Z" fill="#EDCB50"/>
</svg>
