<svg width="124" height="32" viewBox="0 0 124 32" fill="none" xmlns="http://www.w3.org/2000/svg">
<path d="M36.8672 10.0699H39.8672V22.1999H36.8672V10.0699ZM41.0572 17.6199C41.0572 14.6199 42.8972 12.8299 45.7372 12.8299C48.5772 12.8299 50.4172 14.6199 50.4172 17.6199C50.4172 20.6199 48.6172 22.4199 45.7372 22.4199C42.8572 22.4199 41.0572 20.6699 41.0572 17.6199ZM47.4072 17.6199C47.4072 15.9699 46.7572 14.9999 45.7372 14.9999C44.7172 14.9999 44.0772 15.9999 44.0772 17.6199C44.0772 19.2399 44.7072 20.2199 45.7372 20.2199C46.7672 20.2199 47.4072 19.2999 47.4072 17.6299V17.6199ZM51.5472 22.7899H54.4272C54.5643 23.0944 54.796 23.3465 55.0879 23.5087C55.3798 23.6708 55.7163 23.7344 56.0472 23.6899C57.1872 23.6899 57.7872 23.0699 57.7872 22.1699V20.4899H57.7272C57.4882 21.0048 57.1003 21.4362 56.6137 21.7286C56.1271 22.0209 55.564 22.1607 54.9972 22.1299C52.8072 22.1299 51.3572 20.4599 51.3572 17.5899C51.3572 14.7199 52.7372 12.9099 55.0372 12.9099C55.6218 12.887 56.1994 13.0433 56.6927 13.3578C57.186 13.6724 57.5714 14.1302 57.7972 14.6699V12.9999H60.7972V22.0999C60.7972 24.2899 58.8672 25.6499 56.0172 25.6499C53.3672 25.6499 51.7172 24.4599 51.5472 22.7999V22.7899ZM57.7972 17.6099C57.7972 16.1499 57.1272 15.2299 56.0672 15.2299C55.0072 15.2299 54.3572 16.1399 54.3572 17.6099C54.3572 19.0799 54.9972 19.9099 56.0672 19.9099C57.1372 19.9099 57.7972 19.0999 57.7972 17.6199V17.6099ZM61.9272 17.6099C61.9272 14.6099 63.7672 12.8199 66.6072 12.8199C69.4472 12.8199 71.2972 14.6099 71.2972 17.6099C71.2972 20.6099 69.4972 22.4099 66.6072 22.4099C63.7172 22.4099 61.9272 20.6699 61.9272 17.6199V17.6099ZM68.2772 17.6099C68.2772 15.9599 67.6272 14.9899 66.6072 14.9899C65.5872 14.9899 64.9972 15.9999 64.9972 17.6299C64.9972 19.2599 65.6272 20.2299 66.6472 20.2299C67.6672 20.2299 68.2772 19.2999 68.2772 17.6299V17.6099ZM72.4372 10.8199C72.4293 10.517 72.5116 10.2186 72.6735 9.96255C72.8355 9.70645 73.0698 9.50421 73.3468 9.38145C73.6238 9.25869 73.931 9.22094 74.2295 9.27299C74.528 9.32505 74.8043 9.46456 75.0234 9.67383C75.2426 9.88311 75.3946 10.1527 75.4603 10.4485C75.526 10.7443 75.5024 11.0529 75.3924 11.3353C75.2825 11.6176 75.0912 11.861 74.8428 12.0345C74.5945 12.208 74.3001 12.3039 73.9972 12.3099C73.7964 12.3237 73.5949 12.2958 73.4054 12.228C73.2158 12.1602 73.0424 12.054 72.8959 11.9159C72.7494 11.7779 72.633 11.611 72.5541 11.4258C72.4751 11.2407 72.4353 11.0412 72.4372 10.8399V10.8199ZM72.4372 13.0199H75.4372V22.1999H72.4372V13.0199ZM86.3272 17.6099C86.3272 20.6099 84.9972 22.3199 82.7172 22.3199C82.1326 22.3574 81.5505 22.2145 81.0497 21.9105C80.5489 21.6064 80.1536 21.1559 79.9172 20.6199H79.8572V25.1399H76.8572V12.9999H79.8572V14.6399H79.9172C80.1426 14.095 80.5304 13.6328 81.0278 13.3161C81.5252 12.9994 82.1081 12.8436 82.6972 12.8699C84.9972 12.9099 86.3672 14.6299 86.3672 17.6299L86.3272 17.6099ZM83.3272 17.6099C83.3272 16.1499 82.6572 15.2199 81.6072 15.2199C80.5572 15.2199 79.8872 16.1599 79.8772 17.6099C79.8672 19.0599 80.5572 19.9899 81.6072 19.9899C82.6572 19.9899 83.3272 19.0799 83.3272 17.6299V17.6099ZM91.4772 12.8099C93.9672 12.8099 95.4772 13.9899 95.5472 15.8799H92.8172C92.8172 15.2299 92.2772 14.8199 91.4472 14.8199C90.6172 14.8199 90.2472 15.1399 90.2472 15.6099C90.2472 16.0799 90.5772 16.2299 91.2472 16.3699L93.1672 16.7599C94.9972 17.1499 95.7772 17.8899 95.7772 19.2799C95.7772 21.1799 94.0472 22.3999 91.4972 22.3999C88.9472 22.3999 87.2772 21.1799 87.1472 19.3099H90.0372C90.1272 19.9899 90.6672 20.3899 91.5472 20.3899C92.4272 20.3899 92.8272 20.0999 92.8272 19.6199C92.8272 19.1399 92.5472 19.0399 91.8272 18.8899L90.0972 18.5199C88.3072 18.1499 87.3672 17.1999 87.3672 15.7999C87.3872 13.9999 88.9972 12.8299 91.4772 12.8299V12.8099ZM105.787 22.1799H102.897V20.4699H102.837C102.678 21.044 102.328 21.5465 101.844 21.894C101.36 22.2414 100.772 22.4129 100.177 22.3799C99.7214 22.4058 99.2654 22.3336 98.8399 22.1681C98.4144 22.0026 98.0294 21.7478 97.7109 21.4207C97.3924 21.0937 97.1477 20.702 96.9936 20.2723C96.8394 19.8426 96.7793 19.3848 96.8172 18.9299V12.9999H99.8172V18.2399C99.8172 19.3299 100.377 19.9099 101.307 19.9099C101.525 19.9103 101.741 19.8642 101.94 19.7745C102.138 19.6848 102.316 19.5536 102.46 19.3898C102.603 19.2259 102.711 19.0332 102.774 18.8246C102.837 18.6159 102.856 18.3961 102.827 18.1799V12.9999H105.827L105.787 22.1799ZM107.237 12.9999H110.137V14.7699H110.197C110.356 14.2034 110.699 13.7056 111.171 13.3546C111.643 13.0036 112.219 12.819 112.807 12.8299C113.406 12.782 114 12.9611 114.473 13.3317C114.945 13.7023 115.261 14.2371 115.357 14.8299H115.417C115.598 14.2308 115.974 13.7092 116.485 13.3471C116.995 12.985 117.612 12.803 118.237 12.8299C118.645 12.8162 119.051 12.8885 119.429 13.0421C119.808 13.1956 120.149 13.4271 120.432 13.7213C120.715 14.0156 120.933 14.3661 121.072 14.75C121.21 15.1339 121.267 15.5428 121.237 15.9499V22.1999H118.237V16.7499C118.237 15.7499 117.787 15.2899 116.947 15.2899C116.76 15.2883 116.574 15.3269 116.403 15.4031C116.232 15.4793 116.079 15.5913 115.955 15.7316C115.831 15.8719 115.738 16.0371 115.683 16.2162C115.628 16.3954 115.613 16.5842 115.637 16.7699V22.1999H112.787V16.7099C112.787 15.7899 112.337 15.2899 111.517 15.2899C111.328 15.29 111.14 15.3302 110.968 15.4079C110.795 15.4857 110.64 15.5992 110.515 15.7409C110.389 15.8826 110.295 16.0494 110.238 16.2303C110.182 16.4111 110.164 16.6018 110.187 16.7899V22.1999H107.187L107.237 12.9999Z" fill="#858C97"/>
<path d="M28.4777 10.6199C27.9688 9.45625 27.2953 8.37182 26.4777 7.39989C25.2692 5.92023 23.761 4.71328 22.0524 3.85849C20.3438 3.00371 18.4735 2.52046 16.5647 2.44055C14.6559 2.36064 12.7518 2.68588 10.9777 3.39488C9.20362 4.10387 7.59982 5.18054 6.27185 6.55402C4.94387 7.92749 3.92182 9.56664 3.27297 11.3636C2.62412 13.1605 2.36317 15.0745 2.50731 16.9795C2.65146 18.8846 3.19741 20.7375 4.10925 22.4163C5.02109 24.0952 6.27814 25.5619 7.79766 26.7199C8.77266 27.4778 9.85001 28.0939 10.9977 28.5499C12.6067 29.2093 14.3288 29.5489 16.0677 29.5499C19.6571 29.542 23.0969 28.1112 25.6332 25.5712C28.1694 23.0312 29.5951 19.5893 29.5977 15.9999C29.6003 14.1484 29.219 12.3165 28.4777 10.6199ZM16.0577 5.18988C17.6193 5.18972 19.162 5.53102 20.5777 6.18988C20.2325 6.33905 19.8695 6.44324 19.4977 6.49989C18.2743 6.67698 17.141 7.24496 16.2669 8.11906C15.3928 8.99315 14.8248 10.1265 14.6477 11.3499C14.57 12.036 14.2579 12.6743 13.7642 13.1571C13.2705 13.6399 12.6254 13.9375 11.9377 13.9999C10.7143 14.177 9.58092 14.745 8.70683 15.6191C7.83274 16.4932 7.26475 17.6265 7.08766 18.8499C7.0277 19.5023 6.74935 20.1154 6.29766 20.5899C5.51831 18.9432 5.16821 17.126 5.27993 15.3076C5.39165 13.4892 5.96156 11.7286 6.93663 10.1896C7.91169 8.65068 9.26023 7.3834 10.8568 6.50573C12.4533 5.62806 14.2459 5.16853 16.0677 5.16988L16.0577 5.18988ZM7.78766 22.9999C7.90766 22.8899 8.02766 22.7899 8.14766 22.6699C9.03731 21.8074 9.60837 20.6688 9.76766 19.4399C9.83224 18.7491 10.1407 18.1039 10.6377 17.6199C11.116 17.1221 11.7597 16.8162 12.4477 16.7599C13.6711 16.5828 14.8044 16.0148 15.6785 15.1407C16.5526 14.2666 17.1206 13.1333 17.2977 11.9099C17.341 11.1874 17.651 10.5067 18.1677 9.99989C18.6578 9.51174 19.3076 9.21699 19.9977 9.16988C21.1216 9.01525 22.1698 8.5156 22.9977 7.73989C23.9404 8.52196 24.739 9.46278 25.3577 10.5199C25.3197 10.5712 25.2761 10.6182 25.2277 10.6599C24.7504 11.1621 24.1075 11.4747 23.4177 11.5399C22.193 11.7139 21.058 12.2809 20.1833 13.1555C19.3087 14.0302 18.7417 15.1652 18.5677 16.3899C18.4972 17.0783 18.1909 17.7212 17.7007 18.2096C17.2104 18.6981 16.5664 19.002 15.8777 19.0699C14.6507 19.2456 13.5132 19.8125 12.634 20.6862C11.7549 21.56 11.181 22.694 10.9977 23.9199C10.9439 24.4086 10.776 24.8779 10.5077 25.2899C9.48165 24.6807 8.56275 23.9071 7.78766 22.9999ZM16.0577 26.8599C15.043 26.861 14.0331 26.7196 13.0577 26.4399C13.3914 25.8179 13.6083 25.14 13.6977 24.4399C13.7678 23.753 14.0727 23.1113 14.5609 22.6231C15.0491 22.1349 15.6908 21.83 16.3777 21.7599C17.6029 21.5848 18.7385 21.0177 19.6146 20.1434C20.4906 19.2692 21.0601 18.1347 21.2377 16.9099C21.3078 16.223 21.6127 15.5813 22.1009 15.0931C22.5891 14.6049 23.2308 14.3 23.9177 14.2299C24.8397 14.11 25.7185 13.7667 26.4777 13.2299C26.8993 14.8278 26.9492 16.501 26.6237 18.1212C26.2982 19.7414 25.6058 21.2656 24.5998 22.5767C23.5938 23.8877 22.3009 24.951 20.8201 25.6848C19.3394 26.4186 17.7103 26.8035 16.0577 26.8099V26.8599Z" fill="#858C97"/>
</svg>
