<svg width="146" height="36" viewBox="0 0 146 36" fill="none" xmlns="http://www.w3.org/2000/svg">
<g clip-path="url(#clip0_326_4682)">
<g opacity="0.18">
<path opacity="0.18" d="M13.9007 18.0005C13.8987 18.0005 13.8978 18.0015 13.8958 18.0015C12.0088 18.3166 7.25592 19.6116 5.04714 24.7622C2.42645 30.8718 7.45848 32.694 7.45848 32.694C7.3887 32.7426 7.31698 32.7881 7.24429 32.8337C7.24235 32.8347 7.24138 32.8357 7.23944 32.8367C7.23848 32.8367 7.23654 32.8377 7.23557 32.8387C6.77133 33.1211 6.24603 33.3242 5.45711 33.3985C5.44548 33.3995 5.43288 33.4005 5.42125 33.4015C5.26618 33.4154 5.10044 33.4243 4.92211 33.4282C4.91436 33.4282 4.90855 33.4282 4.90079 33.4282C4.89692 33.4282 4.8911 33.4282 4.88722 33.4282C4.87753 33.4282 4.86881 33.4282 4.85912 33.4282C3.51485 33.4431 1.59198 32.8347 0.576269 30.5419C0.548162 30.4804 0.521995 30.418 0.495827 30.3546C0.47935 30.3149 0.462874 30.2753 0.447367 30.2337C0.447367 30.2327 0.446398 30.2327 0.446398 30.2317C0.440583 30.2159 0.433798 30.2 0.427983 30.1822C0.422168 30.1653 0.415384 30.1475 0.409569 30.1316C0.394062 30.089 0.379524 30.0454 0.363047 30.0018C0.352386 29.9701 0.340756 29.9354 0.329126 29.9018C0.323311 29.8829 0.316526 29.8631 0.310711 29.8443C0.308773 29.8354 0.305865 29.8284 0.302957 29.8195C0.294235 29.7918 0.286481 29.763 0.27679 29.7333C0.261283 29.6818 0.246745 29.6293 0.231238 29.5777C-0.511161 26.8786 0.709048 24.6898 1.42916 23.7435C1.66467 23.4334 2.01648 23.0767 2.38672 22.7368C2.39059 22.7329 2.39544 22.7289 2.39931 22.7249C2.40125 22.723 2.40319 22.721 2.40513 22.719C2.40707 22.716 2.40997 22.714 2.41288 22.7111C3.07387 22.1047 3.77944 21.5527 3.96843 21.4051C3.97425 21.4011 3.98006 21.3962 3.98491 21.3922C3.99557 21.3843 4.00332 21.3784 4.00914 21.3744C4.01398 21.3704 4.01786 21.3684 4.01786 21.3684C4.01786 21.3684 4.01883 21.3684 4.0198 21.3675C4.02077 21.3665 4.02271 21.3655 4.02464 21.3635C4.10024 21.3031 4.74766 20.7987 5.90681 20.1863C5.93782 20.1705 5.97078 20.1527 6.00373 20.1358C6.78005 19.7325 7.77444 19.2886 8.97042 18.8982C8.97235 18.8972 8.97429 18.8972 8.97623 18.8962C10.8836 18.273 12.8588 18.0312 14.3019 17.9411C14.3058 17.9411 14.3106 17.9411 14.3145 17.9401L13.9007 18.0005Z" fill="#121519"/>
</g>
<path d="M35.5495 29.8979C34.433 33.3134 30.1569 34.2983 27.5963 31.8261C25.2635 29.5749 21.472 28.0767 18.1971 28.0767C15.0831 28.0767 10.6985 29.9326 8.14564 32.1977C5.89615 34.1943 2.36152 33.7127 0.855397 31.084C-0.181635 29.2737 -0.336705 26.9372 0.835045 24.8604L1.45533 23.7605C1.45533 23.7605 1.45726 23.7595 1.45726 23.7585C2.03393 23.0154 5.87773 18.4634 13.986 17.9937C14.4444 19.7901 16.0416 21.1159 17.9432 21.1159C20.2014 21.1159 22.0322 19.2442 22.0322 16.9355C22.0322 14.6267 20.2014 12.755 17.9432 12.755C15.9718 12.755 14.3271 14.1809 13.9404 16.0774H7.55734C6.77327 16.0774 6.28383 15.2104 6.67538 14.5168L12.2521 4.64182C14.7788 0.167082 21.0959 0.167082 23.6226 4.64182L35.0416 24.8594C35.9711 26.5072 36.066 28.3175 35.5495 29.8979Z" fill="#448C74"/>
<path d="M50.1714 27.9703L51.905 22.6585H59.8034L61.5472 27.9703H65.6093L58.2032 6.42871H53.5052L46.1094 27.9703H50.1714ZM52.9308 19.5241L55.7721 10.8464H55.9363L58.7777 19.5241H52.9308Z" fill="#434A57"/>
<path d="M68.2122 27.9703H71.9255V18.4722C71.9255 16.4211 73.4334 14.9696 75.4746 14.9696C76.1004 14.9696 76.8799 15.0853 77.1979 15.1905V11.6879C76.8594 11.6248 76.2747 11.5827 75.8644 11.5827C74.0591 11.5827 72.5512 12.6345 71.9768 14.5068H71.8126V11.8141H68.2122V27.9703Z" fill="#434A57"/>
<path d="M85.8888 28.2859C90.5048 28.2859 93.4385 24.9515 93.4385 19.9553C93.4385 14.9486 90.5048 11.6037 85.8888 11.6037C81.2728 11.6037 78.3391 14.9486 78.3391 19.9553C78.3391 24.9515 81.2728 28.2859 85.8888 28.2859ZM85.9093 25.2355C83.3551 25.2355 82.1037 22.9005 82.1037 19.9448C82.1037 16.9891 83.3551 14.6225 85.9093 14.6225C88.4224 14.6225 89.6739 16.9891 89.6739 19.9448C89.6739 22.9005 88.4224 25.2355 85.9093 25.2355Z" fill="#434A57"/>
<path d="M106.632 21.1754C106.632 23.6367 104.919 24.8569 103.278 24.8569C101.493 24.8569 100.303 23.5631 100.303 21.512V11.8141H96.5901V22.1011C96.5901 25.9823 98.7443 28.1807 101.842 28.1807C104.201 28.1807 105.863 26.9079 106.581 25.0988H106.745V27.9703H110.346V11.8141H106.632V21.1754Z" fill="#434A57"/>
<path d="M117.877 18.5038C117.877 16.1687 119.252 14.8224 121.211 14.8224C123.129 14.8224 124.278 16.1161 124.278 18.2724V27.9703H127.992V17.6834C128.002 13.8126 125.848 11.6037 122.596 11.6037C120.237 11.6037 118.616 12.7608 117.898 14.5594H117.713V11.8141H114.164V27.9703H117.877V18.5038Z" fill="#434A57"/>
<path d="M137.613 28.2543C140.321 28.2543 141.542 26.6029 142.127 25.4249H142.352V27.9703H146.004V6.42871H142.281V14.4858H142.127C141.563 13.3182 140.403 11.6037 137.624 11.6037C133.982 11.6037 131.12 14.5278 131.12 19.9132C131.12 25.2355 133.9 28.2543 137.613 28.2543ZM138.649 25.1303C136.198 25.1303 134.905 22.9215 134.905 19.8922C134.905 16.884 136.177 14.7277 138.649 14.7277C141.039 14.7277 142.352 16.7577 142.352 19.8922C142.352 23.0267 141.019 25.1303 138.649 25.1303Z" fill="#434A57"/>
</g>
<defs>
<clipPath id="clip0_326_4682">
<rect width="146" height="36" fill="white"/>
</clipPath>
</defs>
</svg>
