<svg width="48" height="42" viewBox="0 0 48 42" fill="none" xmlns="http://www.w3.org/2000/svg">
<g opacity="0.18">
<path opacity="0.18" d="M18.6067 21.8407C18.6041 21.8407 18.6028 21.842 18.6002 21.842C16.0744 22.2537 9.7124 23.9459 6.75584 30.6759C3.24792 38.6593 9.98354 41.0403 9.98354 41.0403C9.89013 41.1037 9.79413 41.1633 9.69683 41.2228C9.69424 41.2241 9.69294 41.2254 9.69034 41.2267C9.68905 41.2267 9.68645 41.228 9.68516 41.2293C9.06375 41.5983 8.36061 41.8637 7.3046 41.9608C7.28903 41.9621 7.27217 41.9634 7.2566 41.9647C7.04903 41.9828 6.82719 41.9945 6.58848 41.9997C6.57811 41.9997 6.57032 41.9997 6.55995 41.9997C6.55476 41.9997 6.54697 41.9997 6.54178 41.9997C6.52881 41.9997 6.51713 41.9997 6.50416 41.9997C4.7048 42.0191 2.13094 41.2241 0.771363 38.2281C0.733741 38.1478 0.698715 38.0663 0.663688 37.9834C0.641633 37.9316 0.619579 37.8798 0.598822 37.8254C0.598822 37.8242 0.597525 37.8241 0.597525 37.8229C0.589741 37.8021 0.580659 37.7814 0.572876 37.7581C0.565092 37.7361 0.556011 37.7128 0.548227 37.6921C0.527471 37.6364 0.508011 37.5794 0.485956 37.5225C0.471686 37.481 0.456118 37.4357 0.440551 37.3917C0.432767 37.3671 0.423685 37.3412 0.415902 37.3166C0.413307 37.305 0.409415 37.2959 0.405523 37.2842C0.393847 37.248 0.383469 37.2104 0.370496 37.1716C0.349739 37.1043 0.330279 37.0357 0.309523 36.9683C-0.684214 33.4415 0.949095 30.5814 1.91299 29.345C2.22824 28.9397 2.69916 28.4736 3.19473 28.0295C3.19992 28.0243 3.20641 28.0192 3.2116 28.014C3.21419 28.0114 3.21679 28.0088 3.21938 28.0062C3.22198 28.0023 3.22587 27.9997 3.22976 27.9958C4.11452 27.2035 5.05896 26.4823 5.31194 26.2894C5.31972 26.2842 5.3275 26.2777 5.33399 26.2726C5.34826 26.2622 5.35864 26.2544 5.36642 26.2493C5.37291 26.2441 5.3781 26.2415 5.3781 26.2415C5.3781 26.2415 5.3794 26.2415 5.38069 26.2402C5.38199 26.2389 5.38459 26.2376 5.38718 26.235C5.48837 26.156 6.35497 25.497 7.90655 24.6969C7.94806 24.6762 7.99217 24.6529 8.03628 24.6308C9.07542 24.1039 10.4065 23.5238 12.0073 23.0137C12.0099 23.0124 12.0125 23.0124 12.0151 23.0111C14.5682 22.1967 17.2121 21.8808 19.1438 21.763C19.149 21.763 19.1555 21.763 19.1607 21.7617L18.6067 21.8407Z" fill="#121519"/>
</g>
<path d="M47.5794 37.3867C46.0849 41.8496 40.3612 43.1366 36.9337 39.9062C33.8111 36.9646 28.736 35.0069 24.3524 35.0069C20.1842 35.0069 14.3151 37.432 10.898 40.3917C7.88699 43.0006 3.15571 42.3714 1.1397 38.9364C-0.248417 36.571 -0.455985 33.518 1.11246 30.8042L1.94273 29.3671C1.94273 29.3671 1.94533 29.3658 1.94533 29.3645C2.71723 28.3934 7.86234 22.4455 18.7156 21.8318C19.3292 24.1791 21.4672 25.9114 24.0125 25.9114C27.0352 25.9114 29.4858 23.4657 29.4858 20.449C29.4858 17.4323 27.0352 14.9865 24.0125 14.9865C21.3738 14.9865 19.1723 16.8496 18.6546 19.3277H10.1106C9.06105 19.3277 8.40591 18.1949 8.93003 17.2885L16.3947 4.38525C19.7768 -1.46175 28.2326 -1.46175 31.6147 4.38525L46.8996 30.8029C48.1437 32.9561 48.2708 35.3216 47.5794 37.3867Z" fill="#448C74"/>
</svg>
