<svg width="132" height="35" viewBox="0 0 132 35" fill="none" xmlns="http://www.w3.org/2000/svg">
<path d="M30.5188 12.25C30.8788 12.25 30.9988 12.38 30.9988 12.73V20.65H35.0688C35.4188 20.65 35.5487 20.78 35.5487 21.13V21.83C35.5487 22.18 35.4188 22.31 35.0688 22.31H29.7087C29.3587 22.31 29.2188 22.18 29.2188 21.83V12.73C29.2188 12.38 29.3587 12.25 29.7087 12.25H30.5188Z" fill="#858C97"/>
<path d="M39.1016 15.74C39.1016 13.43 40.5616 12.04 43.1016 12.04C45.6416 12.04 47.1016 13.43 47.1016 15.74V18.82C47.1016 21.13 45.6316 22.52 43.1016 22.52C40.5716 22.52 39.1016 21.13 39.1016 18.82V15.74ZM45.4216 15.74C45.4216 14.44 44.6116 13.74 43.1516 13.74C41.6916 13.74 40.8916 14.45 40.8916 15.74V18.84C40.8916 20.15 41.6916 20.84 43.1516 20.84C44.6116 20.84 45.4216 20.12 45.4216 18.84V15.74Z" fill="#858C97"/>
<path d="M59.0097 16.8C59.3997 16.8 59.4897 16.93 59.4897 17.28V19.18C59.5003 19.6275 59.4106 20.0718 59.2272 20.4801C59.0437 20.8885 58.7713 21.2506 58.4297 21.54C57.5814 22.2155 56.5118 22.5506 55.4297 22.48C52.8397 22.48 51.4297 21.09 51.4297 18.78V15.68C51.4297 13.4 52.8897 12 55.4297 12C57.4297 12 58.7297 12.79 59.2797 14.37C59.3105 14.4294 59.327 14.4951 59.3279 14.5619C59.3288 14.6288 59.3141 14.695 59.285 14.7551C59.2559 14.8153 59.2131 14.8679 59.1601 14.9087C59.1071 14.9494 59.0453 14.9773 58.9797 14.99L58.1997 15.26C57.8597 15.38 57.7197 15.31 57.5997 14.96C57.434 14.5329 57.1307 14.1731 56.7377 13.9377C56.3447 13.7023 55.8845 13.6045 55.4297 13.66C53.9597 13.66 53.1597 14.37 53.1597 15.66V18.84C53.1597 20.15 53.9697 20.84 55.4297 20.84C56.8897 20.84 57.7897 20.17 57.7897 19.19V18.45H55.6197C55.2597 18.45 55.1297 18.31 55.1297 17.96V17.28C55.1297 16.93 55.2597 16.8 55.6197 16.8H59.0097Z" fill="#858C97"/>
<path d="M63.6172 15.74C63.6172 13.43 65.0772 12.04 67.6172 12.04C70.1572 12.04 71.6172 13.43 71.6172 15.74V18.82C71.6172 21.13 70.1472 22.52 67.6172 22.52C65.0872 22.52 63.6172 21.13 63.6172 18.82V15.74ZM69.9272 15.74C69.9272 14.44 69.1172 13.74 67.6672 13.74C66.2172 13.74 65.3972 14.45 65.3972 15.74V18.84C65.3972 20.15 66.2072 20.84 67.6672 20.84C69.1272 20.84 69.9272 20.12 69.9272 18.84V15.74Z" fill="#858C97"/>
<path d="M76.3281 12.54C76.3281 12.32 76.3981 12.25 76.6181 12.25H77.0781C77.2981 12.25 77.3481 12.32 77.3481 12.54V22.02C77.3481 22.24 77.3481 22.31 77.0781 22.31H76.6181C76.3981 22.31 76.3281 22.24 76.3281 22.02V12.54Z" fill="#858C97"/>
<path d="M86.4575 12.25C87.2903 12.25 88.0889 12.5808 88.6778 13.1697C89.2667 13.7585 89.5975 14.5572 89.5975 15.39C89.5975 16.2228 89.2667 17.0215 88.6778 17.6103C88.0889 18.1992 87.2903 18.53 86.4575 18.53H83.4575V22.02C83.4575 22.24 83.4075 22.31 83.1975 22.31H82.7275C82.5175 22.31 82.4375 22.24 82.4375 22.02V12.54C82.4375 12.32 82.5175 12.25 82.7275 12.25H86.4575ZM86.3675 17.54C86.6538 17.54 86.9373 17.4836 87.2018 17.3741C87.4662 17.2645 87.7066 17.1039 87.909 16.9015C88.1114 16.6991 88.272 16.4587 88.3816 16.1943C88.4911 15.9298 88.5475 15.6463 88.5475 15.36C88.5475 15.0737 88.4911 14.7902 88.3816 14.5257C88.272 14.2613 88.1114 14.0209 87.909 13.8185C87.7066 13.6161 87.4662 13.4555 87.2018 13.3459C86.9373 13.2364 86.6538 13.18 86.3675 13.18H83.3675V17.54H86.3675Z" fill="#858C97"/>
<path d="M97.4084 12.0501C98.1805 11.9649 98.9594 12.131 99.6296 12.5237C100.299 12.9165 100.825 13.5149 101.128 14.2301C101.208 14.3901 101.128 14.5201 100.968 14.6001L100.528 14.8001C100.348 14.8701 100.278 14.8601 100.168 14.6701C99.9418 14.1393 99.5523 13.6943 99.0561 13.3995C98.56 13.1047 97.9829 12.9753 97.4084 13.0301C95.7184 13.0301 94.7984 13.7001 94.7984 14.9001C94.7886 15.2668 94.9117 15.6248 95.1452 15.9078C95.3786 16.1908 95.7065 16.3799 96.0684 16.4401C96.6062 16.6155 97.1639 16.723 97.7284 16.7601C98.4117 16.7965 99.0858 16.9347 99.7284 17.1701C100.221 17.326 100.645 17.6466 100.929 18.0782C101.213 18.5098 101.34 19.026 101.288 19.5401C101.288 21.4101 99.9284 22.5401 97.4284 22.5401C96.6084 22.6339 95.781 22.4439 95.0841 22.0017C94.3872 21.5596 93.8628 20.8919 93.5984 20.1101C93.5807 20.0745 93.5712 20.0354 93.5704 19.9956C93.5696 19.9558 93.5777 19.9164 93.5939 19.8801C93.6101 19.8438 93.6342 19.8115 93.6644 19.7856C93.6945 19.7596 93.73 19.7407 93.7684 19.7301L94.2084 19.5701C94.243 19.5559 94.2803 19.5491 94.3177 19.5501C94.3551 19.5511 94.3919 19.5599 94.4258 19.5759C94.4596 19.5919 94.4898 19.6147 94.5143 19.643C94.5389 19.6713 94.5573 19.7043 94.5684 19.7401C94.7921 20.305 95.1899 20.784 95.7041 21.1077C96.2183 21.4313 96.8223 21.5828 97.4284 21.5401C99.3184 21.5401 100.248 20.8801 100.248 19.5401C100.266 19.1879 100.158 18.8408 99.9438 18.5606C99.7296 18.2805 99.4229 18.0854 99.0784 18.0101C98.561 17.8558 98.0274 17.7618 97.4884 17.7301L96.4084 17.5901C96.0704 17.5184 95.7366 17.4282 95.4084 17.3201C95.0842 17.2222 94.782 17.0626 94.5184 16.8501C94.2531 16.6099 94.044 16.3143 93.9057 15.9842C93.7675 15.6541 93.7035 15.2977 93.7184 14.9401C93.7884 13.1901 95.0984 12.0501 97.4084 12.0501Z" fill="#858C97"/>
<path d="M106.678 18.89C106.72 19.5972 107.031 20.2615 107.547 20.7472C108.063 21.2329 108.745 21.5033 109.453 21.5033C110.161 21.5033 110.843 21.2329 111.359 20.7472C111.875 20.2615 112.185 19.5972 112.228 18.89V12.54C112.228 12.32 112.298 12.25 112.518 12.25H112.978C113.198 12.25 113.268 12.32 113.268 12.54V18.88C113.268 21.15 111.928 22.52 109.458 22.52C106.988 22.52 105.648 21.15 105.648 18.88V12.54C105.648 12.32 105.718 12.25 105.928 12.25H106.398C106.608 12.25 106.678 12.32 106.678 12.54V18.89Z" fill="#858C97"/>
<path d="M127.072 12.25C127.292 12.25 127.362 12.32 127.362 12.54V22.02C127.362 22.24 127.292 22.31 127.072 22.31H126.652C126.442 22.31 126.372 22.24 126.372 22.02V16.25C126.372 15.4105 126.429 14.5719 126.542 13.74H126.482C126.17 14.5007 125.805 15.2391 125.392 15.95L123.242 19.74C123.216 19.8058 123.17 19.862 123.111 19.9013C123.052 19.9405 122.983 19.961 122.912 19.96H122.632C122.56 19.9604 122.49 19.9397 122.429 19.9007C122.369 19.8616 122.321 19.8058 122.292 19.74L120.112 15.91C119.725 15.2093 119.391 14.4806 119.112 13.73H119.052C119.154 14.5695 119.208 15.4143 119.212 16.26V22.02C119.212 22.24 119.142 22.31 118.922 22.31H118.532C118.312 22.31 118.242 22.24 118.242 22.02V12.54C118.242 12.32 118.312 12.25 118.532 12.25H118.892C118.974 12.2424 119.057 12.2603 119.128 12.3015C119.2 12.3427 119.257 12.4051 119.292 12.48L122.792 18.7L126.272 12.54C126.382 12.33 126.442 12.3 126.662 12.3L127.072 12.25Z" fill="#858C97"/>
<path d="M12.73 20.79V28.02C12.73 28.2972 12.6199 28.563 12.4239 28.7589C12.228 28.9549 11.9622 29.065 11.685 29.065C11.4079 29.065 11.1421 28.9549 10.9461 28.7589C10.7501 28.563 10.64 28.2972 10.64 28.02V20.8C10.931 21.0125 11.2798 21.1311 11.64 21.14C12.0326 21.1512 12.4173 21.0277 12.73 20.79ZM21.63 18.7C21.3648 18.7 21.1104 18.8054 20.9229 18.9929C20.7354 19.1804 20.63 19.4348 20.63 19.7V20.96C20.63 21.2372 20.7401 21.503 20.9361 21.6989C21.132 21.8949 21.3978 22.005 21.675 22.005C21.9522 22.005 22.218 21.8949 22.4139 21.6989C22.6099 21.503 22.72 21.2372 22.72 20.96V19.75C22.7278 19.6066 22.7046 19.4632 22.652 19.3296C22.5994 19.196 22.5187 19.0752 22.4152 18.9756C22.3118 18.876 22.1881 18.7998 22.0527 18.7522C21.9172 18.7047 21.773 18.6869 21.63 18.7ZM8.37 23.53C8.01017 23.5192 7.66183 23.4008 7.37 23.19V30.44C7.37 30.7185 7.48062 30.9856 7.67754 31.1825C7.87445 31.3794 8.14152 31.49 8.42 31.49C8.69848 31.49 8.96555 31.3794 9.16246 31.1825C9.35938 30.9856 9.47 30.7185 9.47 30.44V23.24C9.14345 23.4511 8.75816 23.5527 8.37 23.53ZM18.37 16.53C18.2345 16.5232 18.0991 16.5441 17.9719 16.5913C17.8448 16.6385 17.7286 16.7111 17.6303 16.8046C17.5321 16.8982 17.454 17.0107 17.4006 17.1354C17.3473 17.2601 17.3198 17.3944 17.32 17.53V23.1C17.32 23.3785 17.4306 23.6456 17.6275 23.8425C17.8245 24.0394 18.0915 24.15 18.37 24.15C18.6485 24.15 18.9156 24.0394 19.1125 23.8425C19.3094 23.6456 19.42 23.3785 19.42 23.1V17.6C19.428 17.4557 19.4046 17.3114 19.3514 17.177C19.2982 17.0426 19.2166 16.9213 19.112 16.8215C19.0074 16.7217 18.8825 16.6457 18.7458 16.5989C18.6091 16.552 18.4638 16.5353 18.32 16.55L18.37 16.53ZM15.05 18.67C14.6733 18.6674 14.3067 18.5487 14 18.33V25.6C14 25.8785 14.1106 26.1456 14.3075 26.3425C14.5045 26.5394 14.7715 26.65 15.05 26.65C15.3285 26.65 15.5955 26.5394 15.7925 26.3425C15.9894 26.1456 16.1 25.8785 16.1 25.6V18.34C15.7828 18.5763 15.3955 18.6995 15 18.69L15.05 18.67ZM6.1 24.24V3.93C6.09737 3.68243 5.99717 3.44591 5.82117 3.27178C5.64517 3.09765 5.40758 2.99999 5.16 3H4.94C4.69242 2.99999 4.45483 3.09765 4.27883 3.27178C4.10283 3.44591 4.00263 3.68243 4 3.93V24.24C4 24.4893 4.09904 24.7284 4.27532 24.9047C4.4516 25.081 4.6907 25.18 4.94 25.18H5.16C5.40931 25.18 5.6484 25.081 5.82468 24.9047C6.00097 24.7284 6.1 24.4893 6.1 24.24ZM8.48 22.76H8.26C8.0107 22.76 7.7716 22.661 7.59532 22.4847C7.41904 22.3084 7.32 22.0693 7.32 21.82V6.35C7.32264 6.10244 7.42283 5.8659 7.59883 5.69178C7.77483 5.51765 8.01242 5.41999 8.26 5.42H8.48C8.72758 5.41999 8.96517 5.51765 9.14117 5.69178C9.31717 5.8659 9.41737 6.10244 9.42 6.35V21.84C9.42 22.0893 9.32096 22.3284 9.14468 22.5047C8.9684 22.681 8.7293 22.78 8.48 22.78V22.76ZM11.79 20.38H11.56C11.3134 20.38 11.0768 20.282 10.9024 20.1076C10.728 19.9332 10.63 19.6967 10.63 19.45V8.75C10.6287 8.62703 10.6518 8.50502 10.6979 8.39103C10.744 8.27704 10.8123 8.17334 10.8988 8.08592C10.9853 7.9985 11.0883 7.9291 11.2018 7.88174C11.3153 7.83438 11.437 7.80999 11.56 7.81H11.79C12.0376 7.81264 12.2741 7.91283 12.4482 8.08883C12.6224 8.26483 12.72 8.50242 12.72 8.75V19.45C12.72 19.6967 12.622 19.9332 12.4476 20.1076C12.2732 20.282 12.0367 20.38 11.79 20.38ZM15.1 17.93H14.89C14.6424 17.93 14.4048 17.8324 14.2288 17.6582C14.0528 17.4841 13.9526 17.2476 13.95 17V11.24C13.9418 11.1116 13.96 10.9829 14.0036 10.8618C14.0471 10.7408 14.1151 10.6299 14.2032 10.5362C14.2913 10.4424 14.3977 10.3678 14.5159 10.3168C14.634 10.2659 14.7613 10.2397 14.89 10.24H15.11C15.3593 10.24 15.5984 10.339 15.7747 10.5153C15.951 10.6916 16.05 10.9307 16.05 11.18V16.98C16.0513 17.1043 16.028 17.2276 15.9813 17.3428C15.9347 17.458 15.8657 17.5628 15.7782 17.6512C15.6908 17.7395 15.5868 17.8096 15.472 17.8575C15.3573 17.9054 15.2343 17.93 15.11 17.93H15.1ZM18.42 15.78H18.2C17.9507 15.78 17.7116 15.681 17.5353 15.5047C17.359 15.3284 17.26 15.0893 17.26 14.84V13.35C17.2626 13.1024 17.3628 12.8659 17.5388 12.6918C17.7148 12.5176 17.9524 12.42 18.2 12.42H18.42C18.6676 12.42 18.9052 12.5176 19.0812 12.6918C19.2572 12.8659 19.3574 13.1024 19.36 13.35V14.84C19.36 15.0876 19.2624 15.3252 19.0882 15.5012C18.9141 15.6772 18.6776 15.7774 18.43 15.78H18.42Z" fill="#858C97"/>
</svg>
