<svg width="124" height="48" viewBox="0 0 124 48" fill="none" xmlns="http://www.w3.org/2000/svg">
<path d="M1.51705 33V15.5455H8.50568C9.78977 15.5455 10.8608 15.7358 11.7188 16.1165C12.5767 16.4972 13.2216 17.0256 13.6534 17.7017C14.0852 18.3722 14.3011 19.1449 14.3011 20.0199C14.3011 20.7017 14.1648 21.3011 13.892 21.8182C13.6193 22.3295 13.2443 22.75 12.767 23.0795C12.2955 23.4034 11.7557 23.6335 11.1477 23.7699V23.9403C11.8125 23.9687 12.4347 24.1562 13.0142 24.5028C13.5994 24.8494 14.0739 25.3352 14.4375 25.9602C14.8011 26.5795 14.983 27.3182 14.983 28.1761C14.983 29.1023 14.7528 29.929 14.2926 30.6562C13.8381 31.3778 13.1648 31.9489 12.2727 32.3693C11.3807 32.7898 10.2813 33 8.97443 33H1.51705ZM5.20739 29.983H8.21591C9.24432 29.983 9.99432 29.7869 10.4659 29.3949C10.9375 28.9972 11.1733 28.4687 11.1733 27.8097C11.1733 27.3267 11.0568 26.9006 10.8239 26.5312C10.5909 26.1619 10.2585 25.8722 9.8267 25.6619C9.40057 25.4517 8.89205 25.3466 8.30114 25.3466H5.20739V29.983ZM5.20739 22.8494H7.94318C8.44886 22.8494 8.89773 22.7614 9.28977 22.5852C9.6875 22.4034 10 22.1477 10.2273 21.8182C10.4602 21.4886 10.5767 21.0938 10.5767 20.6335C10.5767 20.0028 10.3523 19.4943 9.90341 19.108C9.46023 18.7216 8.82955 18.5284 8.01136 18.5284H5.20739V22.8494ZM33.424 24.2727C33.424 26.1761 33.0632 27.7955 32.3416 29.1307C31.6257 30.4659 30.6484 31.4858 29.4098 32.1903C28.1768 32.8892 26.7905 33.2386 25.2507 33.2386C23.6996 33.2386 22.3075 32.8864 21.0746 32.1818C19.8416 31.4773 18.8672 30.4574 18.1513 29.1222C17.4354 27.7869 17.0774 26.1705 17.0774 24.2727C17.0774 22.3693 17.4354 20.75 18.1513 19.4148C18.8672 18.0795 19.8416 17.0625 21.0746 16.3636C22.3075 15.6591 23.6996 15.3068 25.2507 15.3068C26.7905 15.3068 28.1768 15.6591 29.4098 16.3636C30.6484 17.0625 31.6257 18.0795 32.3416 19.4148C33.0632 20.75 33.424 22.3693 33.424 24.2727ZM29.6825 24.2727C29.6825 23.0398 29.4979 22 29.1286 21.1534C28.7649 20.3068 28.2507 19.6648 27.5859 19.2273C26.9212 18.7898 26.1428 18.571 25.2507 18.571C24.3587 18.571 23.5803 18.7898 22.9155 19.2273C22.2507 19.6648 21.7337 20.3068 21.3643 21.1534C21.0007 22 20.8189 23.0398 20.8189 24.2727C20.8189 25.5057 21.0007 26.5455 21.3643 27.392C21.7337 28.2386 22.2507 28.8807 22.9155 29.3182C23.5803 29.7557 24.3587 29.9744 25.2507 29.9744C26.1428 29.9744 26.9212 29.7557 27.5859 29.3182C28.2507 28.8807 28.7649 28.2386 29.1286 27.392C29.4979 26.5455 29.6825 25.5057 29.6825 24.2727ZM51.4815 24.2727C51.4815 26.1136 51.1491 27.7045 50.4844 29.0455C49.8196 30.3864 48.9077 31.4205 47.7486 32.1477C46.5895 32.875 45.2656 33.2386 43.777 33.2386C42.2884 33.2386 40.9645 32.875 39.8054 32.1477C38.6463 31.4205 37.7344 30.3864 37.0696 29.0455C36.4048 27.7045 36.0724 26.1136 36.0724 24.2727C36.0724 22.4318 36.4048 20.8409 37.0696 19.5C37.7344 18.1591 38.6463 17.125 39.8054 16.3977C40.9645 15.6705 42.2884 15.3068 43.777 15.3068C45.2656 15.3068 46.5895 15.6705 47.7486 16.3977C48.9077 17.125 49.8196 18.1591 50.4844 19.5C51.1491 20.8409 51.4815 22.4318 51.4815 24.2727ZM49.4361 24.2727C49.4361 22.7614 49.1832 21.4858 48.6776 20.446C48.1776 19.4062 47.4986 18.6193 46.6406 18.0852C45.7884 17.5511 44.8338 17.2841 43.777 17.2841C42.7202 17.2841 41.7628 17.5511 40.9048 18.0852C40.0526 18.6193 39.3736 19.4062 38.8679 20.446C38.3679 21.4858 38.1179 22.7614 38.1179 24.2727C38.1179 25.7841 38.3679 27.0597 38.8679 28.0994C39.3736 29.1392 40.0526 29.9261 40.9048 30.4602C41.7628 30.9943 42.7202 31.2614 43.777 31.2614C44.8338 31.2614 45.7884 30.9943 46.6406 30.4602C47.4986 29.9261 48.1776 29.1392 48.6776 28.0994C49.1832 27.0597 49.4361 25.7841 49.4361 24.2727ZM64.581 19.9091C64.4787 19.0455 64.0639 18.375 63.3366 17.8977C62.6094 17.4205 61.7173 17.1818 60.6605 17.1818C59.8878 17.1818 59.2116 17.3068 58.6321 17.5568C58.0582 17.8068 57.6094 18.1506 57.2855 18.5881C56.9673 19.0256 56.8082 19.5227 56.8082 20.0795C56.8082 20.5455 56.919 20.946 57.1406 21.2812C57.3679 21.6108 57.6577 21.8864 58.0099 22.108C58.3622 22.3239 58.7315 22.5028 59.1179 22.6449C59.5043 22.7812 59.8594 22.892 60.1832 22.9773L61.956 23.4545C62.4105 23.5739 62.9162 23.7386 63.473 23.9489C64.0355 24.1591 64.5724 24.446 65.0838 24.8097C65.6009 25.1676 66.027 25.6278 66.3622 26.1903C66.6974 26.7528 66.8651 27.4432 66.8651 28.2614C66.8651 29.2045 66.6179 30.0568 66.1236 30.8182C65.6349 31.5795 64.919 32.1847 63.9759 32.6335C63.0384 33.0824 61.8991 33.3068 60.5582 33.3068C59.3082 33.3068 58.2259 33.1051 57.3111 32.7017C56.402 32.2983 55.6861 31.7358 55.1634 31.0142C54.6463 30.2926 54.3537 29.4545 54.2855 28.5H56.4673C56.5241 29.1591 56.7457 29.7045 57.1321 30.1364C57.5241 30.5625 58.0185 30.8807 58.6151 31.0909C59.2173 31.2955 59.8651 31.3977 60.5582 31.3977C61.3651 31.3977 62.0895 31.267 62.7315 31.0057C63.3736 30.7386 63.8821 30.3693 64.2571 29.8977C64.6321 29.4205 64.8196 28.8636 64.8196 28.2273C64.8196 27.6477 64.6577 27.1761 64.3338 26.8125C64.0099 26.4489 63.5838 26.1534 63.0554 25.9261C62.527 25.6989 61.956 25.5 61.3423 25.3295L59.1946 24.7159C57.831 24.3239 56.7514 23.7642 55.956 23.0369C55.1605 22.3097 54.7628 21.358 54.7628 20.1818C54.7628 19.2045 55.027 18.3523 55.5554 17.625C56.0895 16.892 56.8054 16.3239 57.7031 15.9205C58.6065 15.5114 59.6151 15.3068 60.7287 15.3068C61.8537 15.3068 62.8537 15.5085 63.7287 15.9119C64.6037 16.3097 65.2969 16.8551 65.8082 17.5483C66.3253 18.2415 66.598 19.0284 66.6264 19.9091H64.581ZM69.3857 17.4205V15.5455H82.4766V17.4205H76.9879V33H74.8743V17.4205H69.3857Z" fill="#ED5050"/>
</svg>
