<svg width="124" height="48" viewBox="0 0 124 48" fill="none" xmlns="http://www.w3.org/2000/svg">
<path fill-rule="evenodd" clip-rule="evenodd" d="M0 29.4161V18.3035H11.665V20.9304H4.9556V22.9509H10.3227V25.476H4.9556V29.4161H0ZM35.8207 21.5364C35.8207 21.1326 35.5111 20.9304 35.2011 20.7283C34.7885 20.6269 34.3754 20.5256 33.8593 20.5256C32.8271 20.5256 32.311 20.8286 32.311 21.2329C32.311 22.8501 40.9823 21.8388 40.9823 25.8808C40.9823 28.5078 38.0917 29.7196 33.9623 29.7196C29.9364 29.7196 27.3559 28.0021 27.2523 25.9816H32.0003C32.1039 26.3854 32.4134 26.6889 32.8265 26.8911C33.2396 27.0932 33.7563 27.1945 34.1688 27.1945C35.4076 27.1945 36.2333 26.8911 36.2333 26.2851C36.2333 24.6684 27.6649 25.7795 27.6649 21.5364C27.6649 19.2124 30.349 18 34.1688 18C38.2972 18 40.1556 19.6167 40.5687 21.5364H35.8207ZM40.6722 18.3035H54.5058V21.2334H50.0668V29.4161H45.1117V21.2334H40.6722V18.3035ZM55.1249 29.4161V18.3035H67.306V20.9304H60.0799V22.4453H66.2732V25.0722H60.0799V26.7897H67.6161V29.4161H55.1249Z" fill="#448C74"/>
<path fill-rule="evenodd" clip-rule="evenodd" d="M27.3549 23.759C27.3549 27.5988 23.9482 29.7201 19.5098 29.7201C14.7612 29.7201 11.6641 27.5988 11.6641 23.759C11.6641 20.2232 14.8643 18 19.5098 18C24.8774 18 27.3549 20.8291 27.3549 23.759ZM16.5156 23.759C16.5156 25.1741 17.1352 26.9929 19.5098 26.9929C21.5747 26.9929 22.3999 25.6787 22.3999 23.759C22.3999 22.2436 21.5742 20.6275 19.4062 20.7283C17.2388 20.7283 16.5156 22.345 16.5156 23.759ZM73.1893 25.5778V29.4167H68.3367V18.3035H75.3568C80.4154 18.3035 81.9637 19.3132 81.9637 21.435C81.9637 22.7488 81.241 23.8603 79.4861 24.1628C81.0345 24.5676 82.0662 24.8701 82.0662 27.0932C82.0662 28.6086 81.9637 29.1142 82.5828 29.1142V29.4167H77.6277C77.4212 29.2145 77.3187 28.5083 77.3187 27.4975C77.3187 25.9822 77.0086 25.5784 74.7376 25.5784H73.1893V25.5778ZM73.1893 23.0522H75.1502C76.6985 23.0522 77.5253 22.8501 77.5253 22.0415C77.5253 21.2334 76.596 20.9304 75.4603 20.9304H73.1893V23.0522Z" fill="#448C74"/>
<path fill-rule="evenodd" clip-rule="evenodd" d="M88.5743 24.8701C90.3292 24.8701 91.671 23.5569 91.671 21.8388C91.671 20.1213 90.3292 18.8081 88.5743 18.8081C86.9224 18.8081 85.4766 20.1213 85.4766 21.8388C85.4766 23.5569 86.9224 24.8701 88.5743 24.8701ZM88.5743 24.2641C87.335 24.2641 86.3033 23.2534 86.3033 21.8388C86.3033 20.4248 87.335 19.414 88.5743 19.414C89.915 19.414 90.9483 20.4248 90.9483 21.8388C90.9483 23.2534 89.915 24.2641 88.5743 24.2641ZM87.4385 23.5569H88.0577V22.0415H88.4702L89.3994 23.5569H90.0186L89.0894 22.0415C89.7085 22.0415 90.0186 21.7385 90.0186 21.1321C90.0186 20.4253 89.606 20.1218 88.6768 20.1218H87.4385V23.5569ZM88.0577 20.627H88.6768C88.9869 20.627 89.3994 20.627 89.3994 21.0307C89.3994 21.5359 88.9869 21.5359 88.6768 21.5359H88.0577V20.627Z" fill="#448C74"/>
</svg>
