<svg width="165" height="165" viewBox="0 0 165 165" fill="none" xmlns="http://www.w3.org/2000/svg">
<path d="M130.969 65.7937C134.372 57.2345 139.734 48.7781 146.902 40.6311C149.17 38.053 149.48 34.3407 147.623 31.4532C146.18 29.1844 143.808 27.947 141.23 27.947C140.508 27.947 139.786 27.9983 139.064 28.2563C123.905 32.6907 88.4811 48.4171 87.5014 98.8454C87.1407 118.284 101.372 134.99 119.883 136.898C130.144 137.93 140.353 134.578 147.933 127.772C155.512 120.914 159.844 111.117 159.844 100.908C159.844 83.8922 147.778 68.9905 130.969 65.7937Z" fill="#E3E9EF"/>
<path d="M37.5904 136.898C47.7999 137.93 58.0092 134.578 65.5888 127.772C73.1686 120.914 77.5 111.117 77.5 100.908C77.5 83.8922 65.4342 68.9905 48.6248 65.7937C52.0281 57.2345 57.3905 48.7781 64.5578 40.6312C66.8265 38.0531 67.1359 34.3407 65.2794 31.4532C63.8358 29.1845 61.4638 27.947 58.8857 27.947C58.1641 27.947 57.4421 27.9983 56.7202 28.2564C41.5608 32.6907 6.13734 48.4172 5.15765 98.8454V99.5671C5.15765 118.697 19.2341 134.99 37.5904 136.898Z" fill="#E3E9EF"/>
</svg>
