<svg width="38" height="38" viewBox="0 0 38 38" fill="none" xmlns="http://www.w3.org/2000/svg">
<path d="M27.8575 9.625L14.3663 23.1162C14.1318 23.3506 14.0001 23.6685 14 24V27.75C14 28.0815 14.1317 28.3995 14.3661 28.6339C14.6005 28.8683 14.9185 29 15.25 29H19C19.3315 28.9999 19.6494 28.8682 19.8838 28.6338L33.4263 15.0913C32.6525 14.3837 31.97 13.7375 31.8662 13.6337L27.8575 9.625Z" fill="#EDCB50"/>
<path d="M37.3838 9.36623L33.6338 5.61623C33.3993 5.38189 33.0815 5.25024 32.75 5.25024C32.4185 5.25024 32.1007 5.38189 31.8662 5.61623L29.625 7.85748L35.1425 13.375L37.3838 11.1337C37.6181 10.8993 37.7497 10.5814 37.7497 10.25C37.7497 9.91852 37.6181 9.60064 37.3838 9.36623Z" fill="#EDCB50"/>
<path d="M19 31.5H15.25C14.2554 31.5 13.3016 31.1049 12.5983 30.4017C11.8951 29.6984 11.5 28.7446 11.5 27.75V24C11.4986 23.5074 11.595 23.0193 11.7836 22.5642C11.9722 22.1091 12.2493 21.696 12.5987 21.3487L27.75 6.1975V1.5C27.75 1.16848 27.6183 0.850537 27.3839 0.616116C27.1495 0.381696 26.8315 0.25 26.5 0.25H1.5C1.16848 0.25 0.850537 0.381696 0.616116 0.616116C0.381696 0.850537 0.25 1.16848 0.25 1.5V36.5C0.25 36.8315 0.381696 37.1495 0.616116 37.3839C0.850537 37.6183 1.16848 37.75 1.5 37.75H26.5C26.8315 37.75 27.1495 37.6183 27.3839 37.3839C27.6183 37.1495 27.75 36.8315 27.75 36.5V24.3025L21.6513 30.4013C21.304 30.7507 20.8909 31.0278 20.4358 31.2164C19.9807 31.405 19.4926 31.5014 19 31.5ZM6.5 6.5H21.5C21.8315 6.5 22.1495 6.6317 22.3839 6.86612C22.6183 7.10054 22.75 7.41848 22.75 7.75C22.75 8.08152 22.6183 8.39946 22.3839 8.63388C22.1495 8.8683 21.8315 9 21.5 9H6.5C6.16848 9 5.85054 8.8683 5.61612 8.63388C5.3817 8.39946 5.25 8.08152 5.25 7.75C5.25 7.41848 5.3817 7.10054 5.61612 6.86612C5.85054 6.6317 6.16848 6.5 6.5 6.5ZM5.25 14C5.25 13.6685 5.3817 13.3505 5.61612 13.1161C5.85054 12.8817 6.16848 12.75 6.5 12.75H14C14.3315 12.75 14.6495 12.8817 14.8839 13.1161C15.1183 13.3505 15.25 13.6685 15.25 14C15.25 14.3315 15.1183 14.6495 14.8839 14.8839C14.6495 15.1183 14.3315 15.25 14 15.25H6.5C6.16848 15.25 5.85054 15.1183 5.61612 14.8839C5.3817 14.6495 5.25 14.3315 5.25 14Z" fill="#EDCB50"/>
</svg>
