<svg width="40" height="40" viewBox="0 0 40 40" fill="none" xmlns="http://www.w3.org/2000/svg">
<path d="M26.307 23.1116C26.307 28.3136 22.09 32.5307 16.888 32.5307C11.6859 32.5307 7.46891 28.3136 7.46891 23.1116C7.46891 17.9096 11.6859 13.6925 16.888 13.6925C17.1467 13.6925 17.4028 13.7038 17.6562 13.7243V6.24121C17.4016 6.22973 17.1455 6.22363 16.888 6.22363C7.56102 6.22363 0 13.7846 0 23.1116C0 32.4386 7.56102 39.9996 16.888 39.9996C26.2149 39.9996 33.7759 32.4386 33.7759 23.1116C33.7759 22.8541 33.7698 22.598 33.7584 22.3433H26.2753C26.2958 22.5968 26.307 22.8529 26.307 23.1116Z" fill="#448C74"/>
<path d="M40 20C40 8.9543 31.0457 0 20 0V20H40Z" fill="#3F7FCA"/>
</svg>
