<svg width="40" height="40" viewBox="0 0 40 40" fill="none" xmlns="http://www.w3.org/2000/svg">
<g clip-path="url(#clip0_326_787)">
<path d="M32.6213 22.7824C26.4943 23.0213 20.6934 24.6146 15.525 27.255L8.87893 31.0927C7.12129 32.1061 4.87665 31.4978 3.86795 29.7493L0.49035 23.9008C-0.520513 22.1491 0.0820047 19.9007 1.83372 18.8898L7.33997 15.7103C7.65881 15.5262 8.06657 15.6354 8.25074 15.9543L12.5774 23.4483C12.7647 23.7727 13.1836 23.8804 13.5051 23.6822C13.816 23.4905 13.9009 23.074 13.7182 22.7577L9.36036 15.2095C9.18727 14.9097 9.27227 14.5269 9.55686 14.3297C14.1026 11.1781 17.9484 7.16404 20.9018 2.48266C22.0206 0.707687 24.6278 0.755188 25.6794 2.57599L34.9289 18.5981C35.9801 20.415 34.7215 22.7007 32.6213 22.7824ZM33.8082 11.6236C34.1506 9.6637 33.0019 7.69797 31.1452 7.02512C30.5616 6.81361 30.0322 7.44872 30.3425 7.98632C31.0812 9.2661 31.8225 10.5503 32.5721 11.8482C32.8853 12.3903 33.7004 12.2404 33.8082 11.6236ZM18.4184 35.2136L15.2546 29.7215C15.0708 29.4024 14.6625 29.2929 14.3434 29.477C12.6288 30.4663 12.564 30.5047 10.2768 31.8249C9.95788 32.009 9.84821 32.417 10.0324 32.736L13.2016 38.2245C13.6078 38.9274 14.3384 39.3096 15.0824 39.3096C15.8041 39.3096 16.0801 39.0654 17.625 38.1737C18.66 37.5762 19.0159 36.2478 18.4184 35.2136ZM38.676 6.55444C38.9948 6.37035 39.1041 5.96259 38.92 5.64375C38.736 5.32499 38.3284 5.21557 38.0093 5.39974L36.2843 6.39569C35.694 6.73653 35.9409 7.63989 36.6183 7.63989C36.8554 7.63981 36.8079 7.63297 38.676 6.55444ZM32.5456 3.09976L32.9663 1.53004C33.0616 1.17437 32.8505 0.808857 32.495 0.713521C32.139 0.618351 31.7737 0.829274 31.6783 1.18495L31.2577 2.75466C31.1444 3.17734 31.4629 3.5941 31.902 3.5941C32.1964 3.59402 32.4658 3.3976 32.5456 3.09976ZM39.9772 13.6731C40.0725 13.3175 39.8613 12.9519 39.5057 12.8566L37.9359 12.436C37.5803 12.3409 37.2148 12.5519 37.1194 12.9075C37.0241 13.2631 37.2353 13.6286 37.5909 13.724C39.3076 14.184 39.2134 14.1675 39.3336 14.1675C39.6279 14.1675 39.8973 13.971 39.9772 13.6731Z" fill="#EDCB50"/>
</g>
<defs>
<clipPath id="clip0_326_787">
<rect width="40" height="40" fill="white"/>
</clipPath>
</defs>
</svg>
