<svg width="40" height="40" viewBox="0 0 40 40" fill="none" xmlns="http://www.w3.org/2000/svg">
<path d="M38.6803 8.92375C38.5174 7.83484 37.9698 6.84032 37.1367 6.12048C36.3036 5.40064 35.2401 5.00313 34.1391 5H5.86156C4.76054 5.00313 3.69708 5.40064 2.86395 6.12048C2.03083 6.84032 1.48319 7.83484 1.32031 8.92375L20.0003 21.0112L38.6803 8.92375Z" fill="#EDCB50"/>
<path d="M20.6787 23.55C20.4765 23.6807 20.2408 23.7503 20 23.7503C19.7592 23.7503 19.5235 23.6807 19.3212 23.55L1.25 11.8575V30.3887C1.25132 31.6113 1.73758 32.7834 2.60207 33.6479C3.46656 34.5124 4.63868 34.9987 5.86125 35H34.1388C35.3613 34.9987 36.5334 34.5124 37.3979 33.6479C38.2624 32.7834 38.7487 31.6113 38.75 30.3887V11.8562L20.6787 23.55Z" fill="#EDCB50"/>
</svg>
