<svg width="38" height="38" viewBox="0 0 38 38" fill="none" xmlns="http://www.w3.org/2000/svg">
<path d="M33.25 0H4.25C3.12344 0.0019828 2.04359 0.450386 1.24699 1.24699C0.450386 2.04359 0.0019828 3.12344 0 4.25V25.75C0.0019828 26.8766 0.450386 27.9564 1.24699 28.753C2.04359 29.5496 3.12344 29.998 4.25 30H7.5V36.25C7.50037 36.4929 7.5715 36.7304 7.70469 36.9336C7.83789 37.1367 8.02738 37.2966 8.25 37.3938C8.40728 37.4641 8.5777 37.5003 8.75 37.5C9.06288 37.5 9.3644 37.3827 9.595 37.1712L17.4188 30H33.25C34.3766 29.998 35.4564 29.5496 36.253 28.753C37.0496 27.9564 37.498 26.8766 37.5 25.75V4.25C37.498 3.12344 37.0496 2.04359 36.253 1.24699C35.4564 0.450386 34.3766 0.0019828 33.25 0ZM27.5 22.5H10C9.66848 22.5 9.35054 22.3683 9.11612 22.1339C8.8817 21.8995 8.75 21.5815 8.75 21.25C8.75 20.9185 8.8817 20.6005 9.11612 20.3661C9.35054 20.1317 9.66848 20 10 20H27.5C27.8315 20 28.1495 20.1317 28.3839 20.3661C28.6183 20.6005 28.75 20.9185 28.75 21.25C28.75 21.5815 28.6183 21.8995 28.3839 22.1339C28.1495 22.3683 27.8315 22.5 27.5 22.5ZM27.5 16.25H10C9.66848 16.25 9.35054 16.1183 9.11612 15.8839C8.8817 15.6495 8.75 15.3315 8.75 15C8.75 14.6685 8.8817 14.3505 9.11612 14.1161C9.35054 13.8817 9.66848 13.75 10 13.75H27.5C27.8315 13.75 28.1495 13.8817 28.3839 14.1161C28.6183 14.3505 28.75 14.6685 28.75 15C28.75 15.3315 28.6183 15.6495 28.3839 15.8839C28.1495 16.1183 27.8315 16.25 27.5 16.25ZM27.5 10H10C9.66848 10 9.35054 9.8683 9.11612 9.63388C8.8817 9.39946 8.75 9.08152 8.75 8.75C8.75 8.41848 8.8817 8.10054 9.11612 7.86612C9.35054 7.6317 9.66848 7.5 10 7.5H27.5C27.8315 7.5 28.1495 7.6317 28.3839 7.86612C28.6183 8.10054 28.75 8.41848 28.75 8.75C28.75 9.08152 28.6183 9.39946 28.3839 9.63388C28.1495 9.8683 27.8315 10 27.5 10Z" fill="#EDCB50"/>
</svg>
