<svg width="21" height="20" viewBox="0 0 21 20" fill="none" xmlns="http://www.w3.org/2000/svg">
<path fill-rule="evenodd" clip-rule="evenodd" d="M17.1668 2.29175C17.4431 2.29175 17.708 2.40149 17.9034 2.59685C18.0987 2.7922 18.2085 3.05715 18.2085 3.33341V11.6667C18.2085 11.943 18.0987 12.208 17.9034 12.4033C17.708 12.5987 17.4431 12.7084 17.1668 12.7084H13.8335C13.4883 12.7084 13.2085 12.9882 13.2085 13.3334V16.1657L9.23361 12.8533C9.12129 12.7597 8.97971 12.7084 8.8335 12.7084H3.8335C3.55723 12.7084 3.29228 12.5987 3.09693 12.4033C2.90158 12.208 2.79183 11.943 2.79183 11.6667V3.33341C2.79183 3.05715 2.90158 2.7922 3.09693 2.59685C3.29228 2.40149 3.55723 2.29175 3.8335 2.29175H17.1668ZM18.7873 1.71296C18.3575 1.28319 17.7746 1.04175 17.1668 1.04175H3.8335C3.22571 1.04175 2.64281 1.28319 2.21304 1.71296C1.78327 2.14273 1.54183 2.72563 1.54183 3.33341V11.6667C1.54183 12.2745 1.78327 12.8574 2.21304 13.2872C2.64281 13.717 3.22571 13.9584 3.8335 13.9584H8.60721L13.4334 17.9802C13.6197 18.1355 13.879 18.1689 14.0986 18.0661C14.3182 17.9632 14.4585 17.7426 14.4585 17.5001V13.9584H17.1668C17.7746 13.9584 18.3575 13.717 18.7873 13.2872C19.2171 12.8574 19.4585 12.2745 19.4585 11.6667V3.33341C19.4585 2.72563 19.2171 2.14273 18.7873 1.71296Z" fill="#858C97"/>
</svg>
