<svg width="140" height="30" viewBox="0 0 140 30" fill="none" xmlns="http://www.w3.org/2000/svg">
<path d="M22.4151 13.371C22.0361 13.7523 21.7459 14.2125 21.5651 14.7187C21.3843 15.225 21.3174 15.7649 21.3691 16.3L21.3511 16.282C21.4043 16.9119 21.3193 17.5457 21.1022 18.1394C20.8851 18.733 20.5411 19.2721 20.0942 19.7191C19.6472 20.166 19.1081 20.5101 18.5144 20.7271C17.9208 20.9442 17.2869 21.0292 16.6571 20.976L16.6751 20.994C15.9217 20.9239 15.165 21.0878 14.5081 21.4635C13.8513 21.8392 13.3263 22.4083 13.0048 23.0933C12.6833 23.7783 12.5808 24.5457 12.7114 25.2911C12.8421 26.0364 13.1994 26.7233 13.7347 27.2581C14.27 27.7929 14.9572 28.1496 15.7026 28.2795C16.4481 28.4095 17.2154 28.3063 17.9001 27.9842C18.5848 27.662 19.1534 27.1366 19.5285 26.4794C19.9036 25.8222 20.0669 25.0654 19.9961 24.312L20.0151 24.33C19.9619 23.7002 20.0468 23.0663 20.2639 22.4726C20.481 21.879 20.8251 21.3399 21.272 20.8929C21.719 20.446 22.2581 20.1019 22.8517 19.8849C23.4454 19.6678 24.0792 19.5828 24.7091 19.636L24.6901 19.618C25.3055 19.6733 25.925 19.5724 26.4911 19.3246C27.0571 19.0768 27.5515 18.6901 27.9283 18.2004C28.3051 17.7107 28.5523 17.1337 28.6467 16.5231C28.7412 15.9124 28.68 15.2878 28.4688 14.707C28.2576 14.1263 27.9032 13.6083 27.4385 13.201C26.9738 12.7937 26.4138 12.5103 25.8104 12.3771C25.207 12.2439 24.5797 12.2651 23.9867 12.4388C23.3937 12.6126 22.8542 12.9332 22.4181 13.371H22.4151Z" fill="#858C97"/>
<path d="M15.0451 18.636L15.0261 18.618C15.5614 18.6719 16.102 18.6062 16.6089 18.4256C17.1157 18.245 17.5761 17.9541 17.9567 17.5738C18.3372 17.1935 18.6286 16.7333 18.8095 16.2266C18.9905 15.7199 19.0566 15.1794 19.0031 14.644L19.0221 14.662C18.9689 14.0321 19.0539 13.3983 19.2709 12.8046C19.488 12.211 19.8321 11.6719 20.279 11.2249C20.726 10.778 21.2651 10.4339 21.8587 10.2169C22.4524 9.99976 23.0862 9.91483 23.7161 9.968L23.6971 9.95C24.4506 10.0208 25.2075 9.85736 25.8647 9.4821C26.522 9.10684 27.0474 8.53797 27.3694 7.8531C27.6914 7.16824 27.7943 6.40071 27.6641 5.6552C27.5339 4.90969 27.1769 4.22251 26.6417 3.68737C26.1066 3.15224 25.4194 2.7952 24.6739 2.66498C23.9284 2.53475 23.1609 2.63766 22.476 2.95968C21.7911 3.28169 21.2223 3.80714 20.847 4.46435C20.4717 5.12155 20.3083 5.87852 20.3791 6.632L20.3611 6.613C20.4144 7.24289 20.3296 7.87683 20.1126 8.47055C19.8956 9.06427 19.5515 9.60346 19.1046 10.0505C18.6576 10.4974 18.1184 10.8415 17.5247 11.0585C16.9309 11.2755 16.297 11.3603 15.6671 11.307L15.6851 11.326C15.1498 11.2721 14.6091 11.3378 14.1023 11.5184C13.5955 11.6989 13.1351 11.9899 12.7545 12.3702C12.3739 12.7505 12.0826 13.2107 11.9016 13.7174C11.7207 14.2241 11.6546 14.7646 11.7081 15.3L11.6901 15.282C11.7431 15.9118 11.658 16.5456 11.4409 17.1392C11.2237 17.7327 10.8797 18.2718 10.4328 18.7187C9.98584 19.1656 9.4468 19.5096 8.85324 19.7268C8.25968 19.9439 7.62589 20.029 6.99608 19.976L7.01408 19.994C6.2606 19.9232 5.50363 20.0866 4.84642 20.4619C4.18922 20.8372 3.66377 21.406 3.34176 22.0909C3.01974 22.7758 2.91682 23.5433 3.04705 24.2888C3.17728 25.0343 3.53432 25.7215 4.06945 26.2566C4.60459 26.7918 5.29177 27.1488 6.03728 27.279C6.78279 27.4092 7.55032 27.3063 8.23519 26.9843C8.92005 26.6623 9.48892 26.1369 9.86418 25.4797C10.2395 24.8224 10.4029 24.0655 10.3321 23.312L10.3511 23.33C10.2979 22.7001 10.3829 22.0663 10.6 21.4726C10.817 20.879 11.1611 20.3399 11.608 19.8929C12.055 19.446 12.5941 19.1019 13.1877 18.8849C13.7814 18.6678 14.4152 18.5828 15.0451 18.636Z" fill="#858C97"/>
<path d="M8.34021 16.6289C8.71923 16.2477 9.00941 15.7875 9.19005 15.2812C9.37069 14.7749 9.43733 14.2349 9.38521 13.6999L9.4042 13.7179C9.351 13.0879 9.43596 12.4538 9.65317 11.86C9.87038 11.2662 10.2146 10.727 10.6618 10.28C11.109 9.83306 11.6483 9.48907 12.2422 9.27212C12.8361 9.05516 13.4702 8.97046 14.1002 9.02394L14.0812 9.00594C14.8344 9.07651 15.5911 8.91302 16.248 8.53778C16.9049 8.16255 17.43 7.59382 17.7519 6.90917C18.0737 6.22451 18.1765 5.45726 18.0463 4.71203C17.9161 3.9668 17.5591 3.27988 17.0242 2.74494C16.4893 2.21 15.8023 1.85308 15.0571 1.72286C14.3119 1.59263 13.5446 1.69545 12.86 2.01727C12.1753 2.33909 11.6066 2.86426 11.2314 3.52116C10.8561 4.17806 10.6926 4.93472 10.7632 5.68794L10.7452 5.66994C10.7984 6.29979 10.7134 6.93366 10.4963 7.5273C10.2792 8.12094 9.93523 8.66005 9.48827 9.10701C9.04132 9.55397 8.5022 9.898 7.90856 10.115C7.31492 10.3321 6.68106 10.4171 6.05121 10.3639L6.06921 10.3819C5.45378 10.3267 4.83437 10.4278 4.26839 10.6757C3.70241 10.9236 3.20816 11.3104 2.83145 11.8002C2.45474 12.2899 2.20776 12.8669 2.11338 13.4775C2.01901 14.0882 2.0803 14.7128 2.29157 15.2934C2.50284 15.8741 2.85727 16.392 3.322 16.7992C3.78673 17.2065 4.34673 17.4898 4.95011 17.623C5.55348 17.7561 6.18071 17.7348 6.77368 17.5611C7.36664 17.3873 7.90614 17.0667 8.3422 16.6289H8.34021Z" fill="#858C97"/>
<path d="M39.3203 6.65503H42.2903V21.108H39.3203V6.65503Z" fill="#858C97"/>
<path d="M43.9689 16.1591C43.9648 15.1205 44.269 14.1039 44.843 13.2383C45.417 12.3727 46.235 11.6969 47.1934 11.2966C48.1518 10.8962 49.2074 10.7893 50.2266 10.9894C51.2458 11.1895 52.1827 11.6875 52.9186 12.4205C53.6545 13.1534 54.1563 14.0883 54.3605 15.1067C54.5647 16.1251 54.462 17.1812 54.0655 18.1412C53.669 19.1011 52.9965 19.9219 52.1332 20.4993C51.2698 21.0768 50.2546 21.3851 49.2159 21.3851C48.5265 21.393 47.8424 21.2633 47.2036 21.0037C46.5648 20.7441 45.9842 20.3598 45.4957 19.8733C45.0071 19.3867 44.6205 18.8076 44.3584 18.1699C44.0962 17.5322 43.9638 16.8486 43.9689 16.1591ZM51.4929 16.1591C51.4805 15.7114 51.3364 15.2773 51.0787 14.911C50.8209 14.5448 50.4609 14.2626 50.0437 14.0999C49.6264 13.9371 49.1705 13.9009 48.7328 13.9959C48.2951 14.0909 47.8951 14.3127 47.5828 14.6338C47.2706 14.9548 47.0598 15.3608 46.9771 15.801C46.8943 16.2411 46.943 16.6959 47.1173 17.1085C47.2916 17.5211 47.5836 17.8731 47.9568 18.1206C48.3301 18.3681 48.7681 18.5001 49.2159 18.5001C49.5226 18.5083 49.8277 18.4528 50.112 18.3372C50.3962 18.2216 50.6534 18.0484 50.8673 17.8285C51.0812 17.6085 51.2473 17.3466 51.3549 17.0593C51.4626 16.772 51.5096 16.4655 51.4929 16.1591Z" fill="#858C97"/>
<path d="M66.3028 11.2091V20.6091C66.3028 23.9351 63.7088 25.3411 61.0758 25.3411C60.1488 25.4105 59.2205 25.2232 58.3928 24.7999C57.5652 24.3765 56.8701 23.7334 56.3838 22.9411L58.9178 21.4761C59.1222 21.8891 59.4479 22.2298 59.8512 22.4527C60.2546 22.6755 60.7164 22.7699 61.1748 22.7231C61.4678 22.7637 61.7662 22.7379 62.0479 22.6476C62.3295 22.5573 62.5873 22.4048 62.8021 22.2015C63.0169 21.9981 63.1832 21.7491 63.2888 21.4727C63.3943 21.1964 63.4363 20.8999 63.4118 20.6051V19.7001C63.064 20.1256 62.6214 20.4637 62.1193 20.6872C61.6172 20.9107 61.0698 21.0134 60.5208 20.9871C59.2146 20.9459 57.9757 20.3981 57.0663 19.4595C56.1569 18.521 55.6484 17.2654 55.6484 15.9586C55.6484 14.6518 56.1569 13.3962 57.0663 12.4577C57.9757 11.5191 59.2146 10.9713 60.5208 10.9301C61.0698 10.9038 61.6172 11.0065 62.1193 11.23C62.6214 11.4535 63.064 11.7916 63.4118 12.2171V11.2071L66.3028 11.2091ZM63.4128 15.9601C63.4328 15.4815 63.309 15.0078 63.0575 14.6001C62.806 14.1923 62.4382 13.8692 62.0015 13.6723C61.5648 13.4753 61.0792 13.4136 60.6071 13.495C60.135 13.5764 59.6981 13.7972 59.3525 14.1291C59.007 14.4609 58.7687 14.8885 58.6682 15.3569C58.5678 15.8253 58.6098 16.3131 58.789 16.7574C58.9681 17.2017 59.2761 17.5823 59.6733 17.8501C60.0705 18.1179 60.5388 18.2607 61.0178 18.2601C61.3299 18.2819 61.643 18.2381 61.9371 18.1315C62.2312 18.0249 62.4997 17.8578 62.7253 17.6412C62.9509 17.4245 63.1287 17.163 63.2471 16.8734C63.3655 16.5839 63.422 16.2728 63.4128 15.9601Z" fill="#858C97"/>
<path d="M67.9845 16.1591C67.9804 15.1205 68.2845 14.1039 68.8586 13.2383C69.4326 12.3727 70.2506 11.6969 71.209 11.2966C72.1674 10.8962 73.223 10.7893 74.2422 10.9894C75.2614 11.1895 76.1983 11.6875 76.9342 12.4205C77.6701 13.1534 78.1719 14.0883 78.3761 15.1067C78.5803 16.1251 78.4776 17.1812 78.0811 18.1412C77.6846 19.1011 77.0121 19.9219 76.1488 20.4993C75.2854 21.0768 74.2702 21.3851 73.2315 21.3851C72.5421 21.393 71.8579 21.2633 71.2192 21.0037C70.5804 20.7441 69.9998 20.3598 69.5113 19.8733C69.0227 19.3867 68.6361 18.8076 68.374 18.1699C68.1118 17.5322 67.9794 16.8486 67.9845 16.1591ZM75.5085 16.1591C75.4961 15.7114 75.352 15.2773 75.0943 14.911C74.8365 14.5448 74.4765 14.2626 74.0593 14.0999C73.642 13.9371 73.186 13.9009 72.7484 13.9959C72.3107 14.0909 71.9107 14.3127 71.5984 14.6338C71.2862 14.9548 71.0754 15.3608 70.9926 15.801C70.9098 16.2411 70.9586 16.6959 71.1329 17.1085C71.3072 17.5211 71.5992 17.8731 71.9724 18.1206C72.3457 18.3681 72.7836 18.5001 73.2315 18.5001C73.5382 18.5083 73.8433 18.4528 74.1275 18.3372C74.4118 18.2216 74.669 18.0484 74.8829 17.8285C75.0968 17.6085 75.2629 17.3466 75.3705 17.0593C75.4782 16.772 75.5252 16.4655 75.5085 16.1591Z" fill="#858C97"/>
<path d="M79.8594 8.55593C79.8594 8.20348 79.9639 7.85895 80.1597 7.56591C80.3555 7.27286 80.6339 7.04445 80.9595 6.90958C81.2851 6.7747 81.6434 6.73941 81.9891 6.80817C82.3347 6.87693 82.6523 7.04665 82.9015 7.29587C83.1507 7.54508 83.3204 7.8626 83.3892 8.20828C83.4579 8.55395 83.4226 8.91225 83.2878 9.23787C83.1529 9.56349 82.9245 9.8418 82.6314 10.0376C82.3384 10.2334 81.9939 10.3379 81.6414 10.3379C81.1703 10.3332 80.7197 10.144 80.3865 9.81081C80.0534 9.47763 79.8641 9.02709 79.8594 8.55593ZM80.1594 11.2089H83.1304V21.1089H80.1554L80.1594 11.2089Z" fill="#858C97"/>
<path d="M95.9557 16.159C95.99 16.8133 95.8947 17.4679 95.6751 18.0852C95.4556 18.7025 95.1162 19.2703 94.6764 19.756C94.2367 20.2416 93.7052 20.6356 93.1127 20.9152C92.5201 21.1947 91.8782 21.3544 91.2237 21.385C90.6733 21.415 90.1232 21.3222 89.6131 21.1133C89.103 20.9043 88.6459 20.5845 88.2747 20.177V25.068H85.3047V11.209H88.2747V12.139C88.646 11.7318 89.1033 11.4122 89.6133 11.2035C90.1234 10.9947 90.6734 10.902 91.2237 10.932C91.8783 10.9625 92.5204 11.1221 93.1131 11.4017C93.7058 11.6813 94.2373 12.0753 94.6771 12.5611C95.1169 13.0469 95.4563 13.6149 95.6757 14.2324C95.8951 14.8498 95.9903 15.5046 95.9557 16.159ZM92.9857 16.159C92.9741 15.6957 92.8261 15.2461 92.5602 14.8664C92.2943 14.4868 91.9224 14.194 91.491 14.0248C91.0595 13.8555 90.5877 13.8172 90.1346 13.9148C89.6815 14.0123 89.2673 14.2413 88.9437 14.5731C88.6201 14.905 88.4016 15.3248 88.3155 15.7803C88.2294 16.2357 88.2795 16.7063 88.4596 17.1334C88.6396 17.5605 88.9417 17.9249 89.3279 18.1812C89.7141 18.4374 90.1672 18.5741 90.6307 18.574C90.9489 18.5882 91.2665 18.5349 91.5627 18.4177C91.8588 18.3006 92.1269 18.1221 92.3492 17.8941C92.5716 17.666 92.7432 17.3936 92.8529 17.0946C92.9626 16.7956 93.0079 16.4767 92.9857 16.159Z" fill="#858C97"/>
<path d="M105.124 18.1381C105.124 20.4151 103.145 21.3851 101.007 21.3851C100.143 21.4633 99.2757 21.2807 98.5168 20.8606C97.7579 20.4406 97.1425 19.8026 96.75 19.0291L99.323 17.5641C99.4271 17.9216 99.6507 18.2327 99.9564 18.4452C100.262 18.6578 100.632 18.7591 101.003 18.7321C101.715 18.7321 102.072 18.5141 102.072 18.1191C102.072 17.0291 97.201 17.6041 97.201 14.1791C97.201 12.0201 99.023 10.9321 101.082 10.9321C101.856 10.9076 102.622 11.0912 103.301 11.4637C103.98 11.8363 104.547 12.3841 104.942 13.0501L102.408 14.4161C102.297 14.1568 102.112 13.9359 101.876 13.781C101.64 13.6261 101.364 13.5441 101.082 13.5451C100.567 13.5451 100.25 13.7451 100.25 14.0991C100.254 15.2281 105.124 14.4751 105.124 18.1381Z" fill="#858C97"/>
<path d="M115.969 11.209V21.109H112.999V20.178C112.656 20.5888 112.221 20.9125 111.729 21.1225C111.237 21.3325 110.703 21.4228 110.169 21.386C108.169 21.386 106.469 19.961 106.469 17.286V11.209H109.439V16.851C109.414 17.0868 109.441 17.3252 109.518 17.5495C109.594 17.7739 109.719 17.9789 109.883 18.1502C110.047 18.3215 110.246 18.455 110.467 18.5415C110.687 18.628 110.924 18.6654 111.161 18.651C112.25 18.651 113.002 18.018 113.002 16.612V11.212L115.969 11.209Z" fill="#858C97"/>
<path d="M132.997 15.03V21.108H130.027V15.287C130.027 14.297 129.552 13.664 128.602 13.664C127.612 13.664 127.057 14.357 127.057 15.525V21.108H124.088V15.287C124.088 14.297 123.613 13.664 122.662 13.664C121.672 13.664 121.118 14.357 121.118 15.525V21.108H118.148V11.208H121.118V12.118C121.426 11.7143 121.83 11.3941 122.293 11.1868C122.757 10.9794 123.265 10.8915 123.771 10.931C124.279 10.9061 124.785 11.0134 125.24 11.2423C125.694 11.4711 126.081 11.8139 126.364 12.237C126.693 11.7943 127.129 11.4423 127.631 11.2139C128.133 10.9855 128.685 10.8882 129.235 10.931C131.508 10.932 132.997 12.555 132.997 15.03Z" fill="#858C97"/>
<path d="M135.509 11.148C136.726 11.148 137.713 10.1612 137.713 8.94399C137.713 7.72675 136.726 6.73999 135.509 6.73999C134.292 6.73999 133.305 7.72675 133.305 8.94399C133.305 10.1612 134.292 11.148 135.509 11.148Z" fill="#858C97"/>
</svg>
