<svg width="119" height="30" viewBox="0 0 119 30" fill="none" xmlns="http://www.w3.org/2000/svg">
<path d="M2.9375 27.8251H28.5875V2.17505H2.9375V27.8251ZM23.6505 12.532H18.2305V7.11205H23.6505V12.532ZM7.8735 7.11205H13.2965V17.468H23.6505V22.8881H7.8735V7.11205ZM45.2905 2.17505C42.7539 2.17505 40.2743 2.92723 38.1653 4.33646C36.0562 5.74569 34.4124 7.74868 33.4417 10.0921C32.471 12.4356 32.2171 15.0142 32.7119 17.502C33.2068 19.9898 34.4282 22.275 36.2218 24.0686C38.0154 25.8623 40.3006 27.0837 42.7884 27.5786C45.2763 28.0735 47.8549 27.8195 50.1984 26.8489C52.5419 25.8782 54.5448 24.2344 55.9541 22.1252C57.3633 20.0161 58.1155 17.5365 58.1155 15C58.1115 11.5998 56.759 8.34009 54.3547 5.9358C51.9504 3.5315 48.6907 2.17902 45.2905 2.17505ZM45.2905 22.8881C43.7304 22.8881 42.2053 22.4254 40.9081 21.5586C39.611 20.6919 38.5999 19.46 38.0029 18.0186C37.4059 16.5773 37.2497 14.9913 37.554 13.4611C37.8584 11.931 38.6097 10.5255 39.7128 9.42239C40.816 8.31924 42.2215 7.56798 43.7516 7.26362C45.2817 6.95926 46.8677 7.11547 48.3091 7.71249C49.7504 8.30951 50.9824 9.32054 51.8491 10.6177C52.7159 11.9148 53.1785 13.4399 53.1785 15C53.1753 17.0911 52.3432 19.0956 50.8646 20.5742C49.386 22.0528 47.3815 22.8848 45.2905 22.8881ZM104.01 2.17505C101.473 2.17486 98.9932 2.92686 96.884 4.33597C94.7748 5.74508 93.1309 7.748 92.16 10.0914C91.1892 12.4348 90.935 15.0136 91.4298 17.5014C91.9245 19.9893 93.1459 22.2747 94.9395 24.0683C96.733 25.862 99.0182 27.0837 101.507 27.5786C103.994 28.0735 106.573 27.8195 108.917 26.8489C111.26 25.8783 113.263 24.2344 114.672 22.1253C116.082 20.0162 116.834 17.5366 116.834 15C116.83 11.6 115.478 8.34041 113.074 5.93615C110.67 3.53188 107.41 2.17929 104.01 2.17505ZM104.01 22.8881C102.45 22.8883 100.925 22.4257 99.6269 21.5591C98.3296 20.6925 97.3184 19.4606 96.7212 18.0193C96.124 16.578 95.9677 14.9919 96.2719 13.4617C96.5762 11.9316 97.3274 10.526 98.4305 9.42275C99.5336 8.31949 100.94 7.56813 102.47 7.26369C104 6.95925 105.586 7.1154 107.027 7.7124C108.469 8.30939 109.701 9.32041 110.568 10.6176C111.434 11.9148 111.897 13.4399 111.897 15C111.894 17.0909 111.062 19.0952 109.583 20.5738C108.105 22.0524 106.101 22.8846 104.01 22.8881ZM74.6495 2.17505C72.1129 2.17505 69.6333 2.92723 67.5243 4.33646C65.4152 5.74569 63.7714 7.74868 62.8007 10.0921C61.83 12.4356 61.5761 15.0142 62.0709 17.502C62.5658 19.9898 63.7872 22.275 65.5808 24.0686C67.3744 25.8623 69.6596 27.0837 72.1474 27.5786C74.6352 28.0735 77.2139 27.8195 79.5574 26.8489C81.9009 25.8782 83.9038 24.2344 85.3131 22.1252C86.7223 20.0161 87.4745 17.5365 87.4745 15C87.4705 11.5998 86.118 8.34009 83.7137 5.9358C81.3094 3.5315 78.0497 2.17902 74.6495 2.17505ZM74.6495 22.8881C73.1959 22.8888 71.7705 22.4879 70.5304 21.7295C69.2904 20.9712 68.2839 19.8852 67.6222 18.591C66.9606 17.2968 66.6693 15.8448 66.7807 14.3956C66.8921 12.9463 67.4017 11.556 68.2534 10.3781C69.1051 9.20031 70.2657 8.28066 71.607 7.72076C72.9484 7.16085 74.4184 6.98247 75.8547 7.20529C77.2911 7.42812 78.6379 8.04348 79.7466 8.98347C80.8553 9.92345 81.6827 11.1515 82.1375 12.532H74.6495V17.468H82.1375C81.6166 19.0433 80.613 20.4148 79.2689 21.3876C77.9249 22.3605 76.3087 22.8853 74.6495 22.8881Z" fill="#858C97"/>
</svg>
