<svg width="134" height="34" viewBox="0 0 134 34" fill="none" xmlns="http://www.w3.org/2000/svg">
<path d="M15.4469 6.6499V2.3999H2.04688V31.5999H15.4469V27.3499C12.7019 27.3499 10.0693 26.2594 8.12831 24.3184C6.18731 22.3774 5.09687 19.7449 5.09687 16.9999C5.09687 14.2549 6.18731 11.6223 8.12831 9.68135C10.0693 7.74035 12.7019 6.6499 15.4469 6.6499Z" fill="#858C97"/>
<path d="M15.4531 6.6499V27.3499C18.1981 27.3499 20.8307 26.2594 22.7717 24.3184C24.7127 22.3774 25.8031 19.7449 25.8031 16.9999C25.8031 14.2549 24.7127 11.6223 22.7717 9.68135C20.8307 7.74035 18.1981 6.6499 15.4531 6.6499Z" fill="#858C97"/>
<path d="M33.3203 9.25H36.3203V23.7H33.3203V9.25Z" fill="#858C97"/>
<path d="M38.0005 18.7499C38.0005 17.7103 38.3092 16.6941 38.8874 15.8301C39.4656 14.9661 40.2873 14.2932 41.2484 13.8967C42.2095 13.5003 43.2666 13.3981 44.2858 13.6031C45.305 13.8081 46.2404 14.3111 46.9734 15.0483C47.7064 15.7856 48.2041 16.7238 48.4033 17.7442C48.6024 18.7646 48.4942 19.8211 48.0922 20.7799C47.6902 21.7386 47.0127 22.5565 46.1454 23.1297C45.2781 23.703 44.2601 24.0058 43.2205 23.9999C42.531 24.0053 41.8473 23.873 41.2096 23.6106C40.5719 23.3483 39.9929 22.9613 39.5067 22.4724C39.0205 21.9834 38.6369 21.4022 38.3782 20.763C38.1196 20.1238 37.9912 19.4394 38.0005 18.7499ZM45.5205 18.7499C45.5087 18.3017 45.365 17.8669 45.1074 17.5C44.8498 17.133 44.4898 16.8501 44.0722 16.6867C43.6547 16.5233 43.1983 16.4866 42.7601 16.5813C42.3218 16.6759 41.9212 16.8976 41.6083 17.2188C41.2954 17.5399 41.0841 17.9461 41.0009 18.3867C40.9177 18.8273 40.9662 19.2826 41.1404 19.6957C41.3146 20.1088 41.6067 20.4615 41.9803 20.7094C42.3538 20.9574 42.7921 21.0897 43.2405 21.0899C43.5458 21.0959 43.849 21.0388 44.1312 20.9222C44.4134 20.8057 44.6685 20.6322 44.8806 20.4126C45.0927 20.193 45.2572 19.9319 45.3639 19.6459C45.4706 19.3598 45.5171 19.0548 45.5005 18.7499H45.5205Z" fill="#858C97"/>
<path d="M60.3113 13.8001V23.2101C60.3113 26.5301 57.7113 27.9401 55.0813 27.9401C54.1536 28.0162 53.2231 27.8319 52.3946 27.4079C51.566 26.9839 50.8722 26.337 50.3913 25.5401L52.9212 24.0801C53.1262 24.4935 53.4524 24.8345 53.8562 25.0578C54.26 25.2811 54.7222 25.3761 55.1813 25.3301C55.4738 25.3661 55.7705 25.3371 56.0504 25.2451C56.3304 25.153 56.5866 25.0003 56.8006 24.7977C57.0147 24.5951 57.1813 24.3478 57.2886 24.0733C57.3959 23.7989 57.4411 23.5041 57.4212 23.2101V22.3001C57.0721 22.7234 56.6292 23.0594 56.1276 23.2816C55.6259 23.5038 55.0793 23.606 54.5312 23.5801C53.2052 23.5801 51.9335 23.0533 50.9958 22.1156C50.0581 21.178 49.5312 19.9062 49.5312 18.5801C49.5312 17.254 50.0581 15.9823 50.9958 15.0446C51.9335 14.1069 53.2052 13.5801 54.5312 13.5801C55.0793 13.5542 55.6259 13.6564 56.1276 13.8786C56.6292 14.1008 57.0721 14.4368 57.4212 14.8601V13.8601L60.3113 13.8001ZM57.4212 18.5501C57.4411 18.0717 57.3175 17.5982 57.0662 17.1906C56.8149 16.783 56.4476 16.4599 56.0111 16.2628C55.5747 16.0657 55.0894 16.0037 54.6174 16.0847C54.1455 16.1657 53.7085 16.386 53.3628 16.7173C53.0171 17.0486 52.7784 17.4758 52.6774 17.9439C52.5764 18.412 52.6177 18.8995 52.796 19.3439C52.9744 19.7883 53.2816 20.1692 53.6781 20.4376C54.0747 20.706 54.5425 20.8497 55.0213 20.8501C55.3338 20.8726 55.6475 20.8293 55.9421 20.7231C56.2368 20.6168 56.506 20.4499 56.7321 20.2331C56.9583 20.0164 57.1364 19.7546 57.2551 19.4647C57.3738 19.1748 57.4304 18.8632 57.4212 18.5501Z" fill="#858C97"/>
<path d="M62.0003 18.75C62.0003 17.7112 62.3085 16.6958 62.8858 15.8322C63.4631 14.9686 64.2837 14.2957 65.2436 13.8987C66.2035 13.5016 67.2595 13.3982 68.2782 13.6016C69.2969 13.805 70.2323 14.306 70.9662 15.0412C71.7 15.7765 72.1992 16.7129 72.4006 17.7319C72.6021 18.751 72.4968 19.8069 72.0979 20.766C71.699 21.7252 71.0244 22.5444 70.1598 23.1201C69.2951 23.6958 68.2791 24.002 67.2403 24C66.5495 24.0067 65.8643 23.8754 65.2249 23.6138C64.5855 23.3522 64.0046 22.9656 63.5166 22.4766C63.0285 21.9876 62.643 21.4061 62.3826 20.7662C62.1223 20.1263 61.9923 19.4408 62.0003 18.75ZM69.5203 18.75C69.5085 18.3014 69.3645 17.8662 69.1065 17.499C68.8485 17.1319 68.4878 16.849 68.0697 16.6859C67.6516 16.5228 67.1947 16.4867 66.7562 16.5822C66.3177 16.6776 65.9171 16.9004 65.6046 17.2225C65.2921 17.5446 65.0816 17.9518 64.9996 18.393C64.9175 18.8342 64.9674 19.2898 65.1431 19.7027C65.3188 20.1157 65.6125 20.4676 65.9874 20.7144C66.3622 20.9611 66.8015 21.0918 67.2503 21.09C67.5556 21.096 67.8588 21.0389 68.141 20.9223C68.4232 20.8058 68.6783 20.6323 68.8904 20.4127C69.1025 20.1931 69.267 19.932 69.3737 19.646C69.4804 19.3599 69.527 19.0549 69.5104 18.75H69.5203Z" fill="#858C97"/>
<path d="M73.8672 11.1501C73.8672 10.7981 73.9716 10.4539 74.1672 10.1612C74.3628 9.86848 74.6408 9.64034 74.966 9.50561C75.2913 9.37089 75.6492 9.33564 75.9945 9.40432C76.3397 9.473 76.6569 9.64253 76.9059 9.89147C77.1548 10.1404 77.3243 10.4576 77.393 10.8028C77.4617 11.1481 77.4264 11.506 77.2917 11.8313C77.157 12.1565 76.9288 12.4345 76.6361 12.6301C76.3434 12.8257 75.9993 12.9301 75.6472 12.9301C75.1767 12.9249 74.727 12.7357 74.3943 12.403C74.0616 12.0703 73.8724 11.6206 73.8672 11.1501ZM74.1572 13.8001H77.1572V23.7001H74.1572V13.8001Z" fill="#858C97"/>
<path d="M89.9966 18.7501C90.0302 19.4085 89.9333 20.0671 89.7114 20.6879C89.4896 21.3087 89.1471 21.8795 88.7038 22.3674C88.2604 22.8554 87.725 23.2508 87.1282 23.531C86.5315 23.8112 85.8852 23.9706 85.2266 24.0001C84.6677 24.0373 84.1076 23.9478 83.5882 23.7383C83.0687 23.5287 82.6033 23.2046 82.2266 22.7901V27.6801H79.2266V13.8001H82.2266V14.7301C82.6038 14.3168 83.0696 13.9942 83.5891 13.7864C84.1086 13.5785 84.6684 13.4909 85.2266 13.5301C85.8826 13.5596 86.5263 13.7181 87.121 13.9964C87.7157 14.2747 88.2498 14.6675 88.6927 15.1522C89.1357 15.6369 89.4788 16.2041 89.7025 16.8215C89.9262 17.4388 90.0262 18.0941 89.9966 18.7501ZM86.9966 18.7501C86.9848 18.2856 86.8361 17.835 86.5693 17.4547C86.3025 17.0744 85.9293 16.7812 85.4966 16.6121C85.0639 16.4429 84.5909 16.4053 84.1368 16.5038C83.6828 16.6023 83.268 16.8327 82.9443 17.166C82.6206 17.4993 82.4025 17.9207 82.3174 18.3775C82.2322 18.8342 82.2837 19.3059 82.4655 19.7335C82.6473 20.161 82.9512 20.5254 83.3392 20.781C83.7272 21.0366 84.182 21.1719 84.6466 21.1701C84.9648 21.1836 85.2823 21.1297 85.5782 21.0119C85.8742 20.8941 86.1419 20.7151 86.3638 20.4866C86.5857 20.2581 86.7567 19.9852 86.8658 19.686C86.9749 19.3867 87.0194 19.0678 86.9966 18.7501Z" fill="#858C97"/>
<path d="M99.13 20.73C99.13 23.01 97.13 23.98 95.01 23.98C94.1453 24.0578 93.2772 23.8745 92.5178 23.4538C91.7584 23.0331 91.1426 22.3943 90.75 21.62L93.33 20.16C93.4322 20.5168 93.6538 20.8277 93.9578 21.0407C94.2618 21.2537 94.6297 21.3558 95 21.33C95.71 21.33 96.07 21.11 96.07 20.71C96.07 19.62 91.2 20.2 91.2 16.77C91.2 14.61 93.02 13.53 95.08 13.53C95.863 13.4949 96.641 13.6726 97.3311 14.0441C98.0213 14.4156 98.598 14.9671 99 15.64L96.42 17C96.306 16.742 96.1198 16.5226 95.8838 16.3682C95.6477 16.2138 95.372 16.1311 95.09 16.13C94.57 16.13 94.26 16.33 94.26 16.68C94.26 17.82 99.13 17.07 99.13 20.73Z" fill="#858C97"/>
<path d="M109.999 13.8V23.7H106.999V22.77C106.658 23.1817 106.225 23.5074 105.736 23.7211C105.246 23.9348 104.713 24.0303 104.179 24C102.179 24 100.469 22.57 100.469 19.9V13.8H103.469V19.45C103.445 19.6862 103.473 19.9247 103.551 20.1491C103.629 20.3734 103.754 20.5782 103.918 20.7494C104.083 20.9205 104.283 21.0539 104.504 21.1404C104.725 21.2268 104.962 21.2642 105.199 21.25C106.279 21.25 107.039 20.61 107.039 19.25V13.8H109.999Z" fill="#858C97"/>
<path d="M127.003 17.62V23.7H124.003V17.88C124.003 16.88 123.533 16.26 122.583 16.26C121.633 16.26 121.033 16.95 121.033 18.12V23.7H118.033V17.88C118.033 16.88 117.563 16.26 116.613 16.26C115.663 16.26 115.062 16.95 115.062 18.12V23.7H112.062V13.8H115.062V14.71C115.373 14.308 115.778 13.9896 116.243 13.7836C116.707 13.5776 117.217 13.4904 117.723 13.53C118.23 13.5035 118.735 13.6095 119.189 13.8374C119.643 14.0653 120.03 14.4074 120.312 14.83C120.642 14.3884 121.079 14.0376 121.581 13.8103C122.082 13.5829 122.634 13.4865 123.183 13.53C125.523 13.53 127.003 15.15 127.003 17.62Z" fill="#858C97"/>
<path d="M129.52 13.7401C130.735 13.7401 131.72 12.7551 131.72 11.5401C131.72 10.3251 130.735 9.34009 129.52 9.34009C128.305 9.34009 127.32 10.3251 127.32 11.5401C127.32 12.7551 128.305 13.7401 129.52 13.7401Z" fill="#858C97"/>
</svg>
