<svg width="124" height="48" viewBox="0 0 124 48" fill="none" xmlns="http://www.w3.org/2000/svg">
<path d="M31.8816 30.1513C32.1467 30.3857 32.3133 30.7086 32.3489 31.0569H31.8114C31.6953 30.5511 31.3496 30.2307 30.6986 30.2307C29.9073 30.2307 29.3752 30.7709 29.3752 31.9043C29.3752 32.8338 29.8154 33.4694 30.6824 33.4694C31.2955 33.4694 31.6926 33.1384 31.8438 32.3836H32.3813C32.276 33.3078 31.6142 33.946 30.6203 33.946C29.5372 33.946 28.8161 33.1728 28.8161 31.8116C28.8161 30.5856 29.5481 29.7567 30.6959 29.7567C31.2037 29.754 31.6007 29.8865 31.8816 30.1513ZM33.0673 29.8467H33.5643V31.335C33.8911 30.9298 34.1018 30.8716 34.4799 30.8716C35.1389 30.8716 35.4738 31.1708 35.4738 31.9811V33.8401H34.9769V32.0129C34.9769 31.4674 34.7905 31.3059 34.38 31.3059C33.9694 31.3059 33.5616 31.5283 33.5616 32.3015V33.8401H33.0646V29.8467H33.0673ZM36.6217 33.0775C36.6217 32.7941 36.7892 32.6432 37.2726 32.5743C37.2726 32.5743 37.667 32.5187 37.8533 32.4737C37.9365 32.451 38.0157 32.4161 38.0883 32.3704V32.7597C38.094 32.896 38.057 33.0308 37.9821 33.1459C37.9072 33.261 37.7982 33.3508 37.6697 33.4032C37.3672 33.5435 37.0161 33.578 36.7811 33.4005C36.7295 33.3636 36.688 33.3149 36.6602 33.2585C36.6324 33.2022 36.6192 33.14 36.6217 33.0775ZM37.0458 32.1877C36.4867 32.2539 36.1167 32.5478 36.1167 33.0854C36.1167 33.5779 36.5029 33.9434 37.0512 33.9434C37.2545 33.9441 37.4554 33.9006 37.6395 33.8159C37.8235 33.7311 37.9861 33.6074 38.1153 33.4535C38.1612 33.7845 38.3098 33.901 38.5718 33.901C38.642 33.901 38.6987 33.8984 38.7392 33.8931C38.7798 33.8878 38.8365 33.8719 38.9148 33.8507V33.4932L38.8257 33.5065L38.7527 33.5091C38.6879 33.5091 38.642 33.4932 38.6204 33.4614C38.5988 33.4297 38.588 33.3926 38.588 33.3423V31.6845C38.588 31.1311 38.1072 30.8716 37.4185 30.8716C36.8243 30.8716 36.2922 31.1125 36.276 31.8328H36.7406C36.7919 31.4224 37.0053 31.2953 37.4077 31.2953C37.8479 31.2953 38.1018 31.4356 38.1018 31.764C38.1018 31.8434 38.091 31.907 38.0694 31.9493C38.0316 32.0261 37.956 32.0765 37.8425 32.0897L37.0458 32.1877ZM39.4604 30.9325H39.9465V31.3456C40.2626 30.9589 40.4948 30.8689 40.8189 30.8689C41.189 30.8689 41.4266 30.9801 41.6076 31.327C41.705 31.1822 41.8384 31.0641 41.9953 30.9839C42.1522 30.9037 42.3274 30.8642 42.5043 30.8689C43.1201 30.8689 43.4361 31.1708 43.4361 31.907V33.8375H42.9229V31.8222C42.9229 31.1655 42.2477 31.1973 41.8993 31.5071C41.7562 31.6369 41.6886 31.8514 41.6886 32.1506V33.8401H41.189V31.9414C41.189 31.4436 41.0377 31.3059 40.6974 31.3059C40.3166 31.3059 39.9546 31.5521 39.9546 32.3015V33.8401H39.4604V30.9325ZM45.5266 33.5197C45.0053 33.5197 44.719 33.141 44.719 32.4949C44.719 31.6925 44.9999 31.2953 45.5266 31.2953C46.0479 31.2953 46.3342 31.7031 46.3342 32.373C46.3342 33.1384 45.9912 33.5197 45.5266 33.5197ZM44.2356 35H44.7326V33.5223C45.0324 33.8798 45.2376 33.9434 45.5887 33.9434C46.3207 33.9434 46.842 33.3661 46.842 32.3307C46.842 31.3985 46.3126 30.8716 45.6401 30.8716C45.4592 30.8665 45.2801 30.9067 45.1195 30.9882C44.9588 31.0697 44.822 31.19 44.7218 31.3376V30.9536H44.2356V35ZM47.474 30.9536H47.9709V33.8401H47.474V30.9536ZM47.474 29.8679H47.9709V30.4267H47.474V29.8679ZM49.9372 33.5197C49.3376 33.5197 49.0756 33.0563 49.0756 32.4393C49.0756 31.7984 49.3376 31.2767 49.9426 31.2767C50.4963 31.2767 50.7961 31.6422 50.7961 32.336C50.7961 32.9371 50.5935 33.5197 49.9372 33.5197ZM49.9534 30.8504C49.1107 30.8504 48.5678 31.4753 48.5678 32.4498C48.5678 33.3714 49.0837 33.9434 49.8859 33.9434C50.8474 33.9434 51.3012 33.2628 51.3012 32.3254C51.3039 31.3562 50.707 30.8504 49.9534 30.8504ZM51.9197 30.9325H52.4058V31.3429C52.514 31.1938 52.6576 31.0727 52.8242 30.9901C52.9908 30.9076 53.1753 30.866 53.3619 30.8689C54.0048 30.8689 54.3235 31.1443 54.3235 31.9758V33.8375H53.8265V32.0076C53.8265 31.5336 53.6401 31.3059 53.262 31.3059C52.9406 31.3059 52.7759 31.3932 52.6111 31.5813C52.4436 31.7746 52.4139 31.9414 52.4139 32.3174V33.8401H51.917V30.9325H51.9197ZM56.4275 29.8573H56.9758V33.8401H56.4275V29.8573ZM57.8698 30.9325H58.3559V31.3429C58.4641 31.1938 58.6077 31.0727 58.7743 30.9901C58.9409 30.9076 59.1254 30.866 59.312 30.8689C59.9495 30.8689 60.2736 31.1417 60.2736 31.9758V33.8375H59.7766V32.0076C59.7766 31.5336 59.5902 31.3059 59.2121 31.3059C58.8907 31.3059 58.726 31.3932 58.5612 31.5813C58.3937 31.7746 58.364 31.9414 58.364 32.3174V33.8401H57.8671V30.9325H57.8698ZM61.1595 30.1274H61.6564V30.9325H62.1318V31.335H61.6564V33.2231C61.6564 33.3237 61.6943 33.3899 61.7618 33.427C61.8233 33.4521 61.8898 33.4629 61.9562 33.4588L62.0319 33.4561C62.0644 33.4558 62.0969 33.4531 62.1291 33.4482V33.8401C62.0072 33.8695 61.8819 33.8838 61.7564 33.8825C61.2918 33.8825 61.1595 33.6256 61.1595 33.2549V31.3376H60.7597V30.9325H61.1595V30.1274ZM63.0663 32.1638C63.0879 31.6581 63.4282 31.2953 63.8793 31.2953C64.36 31.2953 64.6382 31.5442 64.6923 32.1638H63.0663ZM63.9063 30.8716C63.0825 30.8716 62.518 31.5124 62.518 32.4445C62.518 33.3899 63.096 33.9434 63.828 33.9434C64.4114 33.9434 64.7706 33.7713 65.0272 33.292C65.0918 33.1835 65.1349 33.064 65.1541 32.9398H64.6679C64.6239 33.1118 64.5204 33.2635 64.3752 33.3692C64.2299 33.4749 64.0519 33.5281 63.8712 33.5197C63.3229 33.5197 63.0744 33.1384 63.0528 32.5478H65.1946C65.1946 32.2592 65.1811 32.0473 65.1514 31.9123C65.1282 31.7226 65.0573 31.5415 64.9451 31.3853C64.8329 31.2291 64.6829 31.1026 64.5086 31.0172C64.3223 30.9228 64.116 30.8729 63.9063 30.8716ZM65.8834 30.9325H66.3695V31.4356C66.4478 31.237 66.7855 30.8689 67.1798 30.8689L67.2284 30.8716L67.3418 30.8795V31.3959C67.3151 31.3909 67.288 31.3882 67.2608 31.3879L67.1771 31.3853C66.6666 31.3853 66.383 31.7534 66.383 32.1665V33.8375H65.8861V30.9325H65.8834ZM67.8469 30.9325H68.3331V31.3429C68.4416 31.1941 68.5852 31.0733 68.7517 30.9908C68.9182 30.9082 69.1026 30.8664 69.2892 30.8689C69.932 30.8689 70.2507 31.1443 70.2507 31.9758V33.8375H69.7538V32.0076C69.7538 31.5309 69.562 31.3059 69.192 31.3059C68.8625 31.3059 68.7004 31.3932 68.541 31.5813C68.3709 31.7746 68.3412 31.9388 68.3412 32.3174V33.8401H67.8442V30.9325H67.8469ZM71.4013 33.0775C71.4013 32.7941 71.5688 32.6432 72.0522 32.5743C72.0522 32.5743 72.4466 32.5187 72.6329 32.4737C72.7161 32.451 72.7953 32.4161 72.8679 32.3704V32.7597C72.8736 32.896 72.8365 33.0308 72.7617 33.1459C72.6868 33.261 72.5778 33.3508 72.4493 33.4032C72.1468 33.5435 71.7956 33.578 71.5607 33.4005C71.5091 33.3636 71.4676 33.3149 71.4398 33.2585C71.412 33.2022 71.3988 33.14 71.4013 33.0775ZM71.8254 32.1877C71.2663 32.2539 70.8935 32.5478 70.8935 33.0854C70.8935 33.5779 71.2798 33.9434 71.8281 33.9434C72.0314 33.9441 72.2323 33.9006 72.4164 33.8159C72.6004 33.7311 72.7629 33.6074 72.8922 33.4535C72.9462 33.7845 73.0867 33.901 73.3487 33.901C73.4189 33.901 73.4756 33.8984 73.5161 33.8931C73.5566 33.8878 73.6161 33.8719 73.6917 33.8507V33.4932L73.6025 33.5065L73.5296 33.5091C73.4648 33.5091 73.4189 33.4932 73.3973 33.4614C73.3757 33.4297 73.3649 33.3926 73.3649 33.3423V31.6845C73.3649 31.1337 72.8868 30.8716 72.1954 30.8716C71.6012 30.8716 71.0691 31.1125 71.0529 31.8328H71.5174C71.5715 31.4144 71.7875 31.2953 72.1846 31.2953C72.6248 31.2953 72.8787 31.4356 72.8787 31.764C72.8787 31.8434 72.8679 31.907 72.8463 31.9493C72.8085 32.0261 72.7329 32.0765 72.6167 32.0897L71.8254 32.1877ZM74.3318 30.1274H74.8315V30.9325H75.3068V31.335H74.8315V33.2231C74.8315 33.3237 74.8666 33.3899 74.9368 33.427C74.9979 33.4499 75.0633 33.4599 75.1286 33.4561L75.2069 33.4535L75.3041 33.4455V33.8375C75.1813 33.8671 75.0552 33.8813 74.9287 33.8798C74.4641 33.8798 74.3318 33.623 74.3318 33.2522V31.3376H73.9348V30.9325H74.3318V30.1274ZM75.9172 30.9536H76.4142V33.8401H75.9172V30.9536ZM75.9172 29.8679H76.4142V30.4267H75.9172V29.8679ZM78.3805 33.5197C77.7809 33.5197 77.5189 33.0563 77.5189 32.4393C77.5189 31.7984 77.7809 31.2767 78.3859 31.2767C78.9395 31.2767 79.2393 31.6422 79.2393 32.336C79.242 32.9371 79.0368 33.5197 78.3805 33.5197ZM78.3967 30.8504C77.554 30.8504 77.0111 31.4753 77.0111 32.4498C77.0111 33.3714 77.527 33.9434 78.3291 33.9434C79.2907 33.9434 79.7444 33.2628 79.7444 32.3254C79.7471 31.3562 79.1502 30.8504 78.3967 30.8504ZM80.4196 30.9325H80.9058V31.3429C81.0143 31.1941 81.158 31.0733 81.3245 30.9908C81.491 30.9082 81.6754 30.8664 81.8619 30.8689C82.502 30.8689 82.8234 31.139 82.8234 31.9758V33.8375H82.3292V32.0076C82.3292 31.5309 82.1374 31.3059 81.7674 31.3059C81.4325 31.3059 81.2758 31.3959 81.1165 31.5813C80.9463 31.7746 80.9166 31.9388 80.9166 32.3174V33.8401H80.4196V30.9325ZM83.974 33.0775C83.974 32.7941 84.1415 32.6432 84.625 32.5743C84.625 32.5743 85.0193 32.5187 85.2057 32.4737C85.2888 32.451 85.368 32.4161 85.4406 32.3704V32.7597C85.4463 32.896 85.4093 33.0308 85.3344 33.1459C85.2595 33.261 85.1505 33.3508 85.022 33.4032C84.7249 33.5435 84.3684 33.578 84.1334 33.4005C84.0818 33.3636 84.0403 33.3149 84.0125 33.2585C83.9847 33.2022 83.9715 33.14 83.974 33.0775ZM84.4008 32.1877C83.8417 32.2539 83.469 32.5478 83.469 33.0854C83.469 33.5779 83.8552 33.9434 84.4035 33.9434C84.8626 33.9434 85.2651 33.7183 85.4676 33.4535C85.5135 33.7845 85.6621 33.901 85.9268 33.901C85.9943 33.901 86.051 33.8984 86.0915 33.8931C86.1321 33.8878 86.1915 33.8719 86.2671 33.8507V33.4932L86.1807 33.5065L86.105 33.5091C86.0402 33.5091 85.9943 33.4932 85.9727 33.4614C85.9511 33.4297 85.9403 33.3926 85.9403 33.3423V31.6845C85.9403 31.1337 85.4622 30.8716 84.7708 30.8716C84.1766 30.8716 83.6445 31.1125 83.6283 31.8328H84.0929C84.1415 31.4197 84.3576 31.2953 84.76 31.2953C85.2002 31.2953 85.4541 31.4356 85.4541 31.764C85.4541 31.8434 85.4433 31.907 85.4244 31.9493C85.3839 32.0261 85.3083 32.0765 85.1948 32.0897L84.4008 32.1877ZM86.8127 29.8679H87.3097V33.8401H86.8127V29.8679ZM92.201 30.1513C92.4661 30.3857 92.6327 30.7086 92.6683 31.0569H92.1308C92.0146 30.5511 91.6689 30.2307 91.018 30.2307C90.2266 30.2307 89.6946 30.7736 89.6946 31.9043C89.6946 32.8338 90.1348 33.4694 91.0018 33.4694C91.6149 33.4694 92.0119 33.1384 92.1632 32.3836H92.7007C92.5953 33.3078 91.9336 33.946 90.9397 33.946C89.8566 33.946 89.1355 33.1728 89.1355 31.8116C89.1355 30.5856 89.8674 29.7567 91.0153 29.7567C91.5231 29.754 91.9201 29.8865 92.201 30.1513ZM94.486 33.5197C93.8864 33.5197 93.6271 33.0563 93.6271 32.4393C93.6271 31.7984 93.8918 31.2767 94.4914 31.2767C95.0505 31.2767 95.3448 31.6422 95.3448 32.336C95.3448 32.9371 95.145 33.5197 94.486 33.5197ZM94.5022 30.8504C93.6595 30.8504 93.1193 31.4753 93.1193 32.4498C93.1193 33.3687 93.6298 33.9434 94.4346 33.9434C95.3989 33.9434 95.8499 33.2602 95.8499 32.3254C95.8526 31.3562 95.2557 30.8504 94.5022 30.8504ZM96.4684 30.9325H96.9546V31.4356C97.0329 31.237 97.3705 30.8689 97.7649 30.8689L97.8135 30.8716L97.9269 30.8795V31.3959C97.8993 31.3907 97.8713 31.3881 97.8432 31.3879L97.7622 31.3853C97.2517 31.3853 96.9681 31.7534 96.9681 32.1665V33.8375H96.4711V30.9325H96.4684ZM99.6825 33.5197C99.1558 33.5197 98.8749 33.141 98.8749 32.4949C98.8749 31.6925 99.1558 31.2953 99.6825 31.2953C100.201 31.2953 100.49 31.7057 100.49 32.373C100.49 33.141 100.144 33.5197 99.6825 33.5197ZM98.3888 35H98.8857V33.5223C99.1774 33.8798 99.3881 33.9434 99.7419 33.9434C100.474 33.9434 100.995 33.3661 100.995 32.3307C100.995 31.3959 100.466 30.8716 99.7905 30.8716C99.6101 30.8667 99.4315 30.907 99.2713 30.9885C99.1111 31.0701 98.9747 31.1902 98.8749 31.3376V30.9536H98.3888V35ZM102.783 33.5197C102.184 33.5197 101.924 33.0563 101.924 32.4393C101.924 31.7984 102.189 31.2767 102.789 31.2767C103.35 31.2767 103.642 31.6448 103.642 32.336C103.645 32.9371 103.442 33.5197 102.783 33.5197ZM102.799 30.8504C101.957 30.8504 101.416 31.4753 101.416 32.4498C101.416 33.3714 101.93 33.9434 102.732 33.9434C103.693 33.9434 104.147 33.2628 104.147 32.3254C104.15 31.3562 103.553 30.8504 102.799 30.8504ZM104.709 30.9325H105.195V31.4356C105.273 31.2396 105.608 30.8689 106.005 30.8689L106.054 30.8716C106.093 30.8726 106.132 30.8752 106.17 30.8795V31.3959C106.142 31.3909 106.114 31.3882 106.086 31.3879L106.003 31.3853C105.495 31.3853 105.211 31.7534 105.211 32.1665V33.8375H104.712V30.9325H104.709ZM106.945 33.0775C106.945 32.7968 107.102 32.6432 107.599 32.5743C107.599 32.5743 107.991 32.5187 108.18 32.4737C108.262 32.451 108.34 32.4161 108.412 32.3704V32.7597C108.418 32.8958 108.382 33.0305 108.307 33.1456C108.233 33.2608 108.124 33.3507 107.996 33.4032C107.693 33.5435 107.342 33.578 107.107 33.4005C107.055 33.3643 107.013 33.3157 106.984 33.2592C106.956 33.2028 106.943 33.1403 106.945 33.0775ZM107.372 32.1877C106.818 32.2539 106.44 32.5478 106.44 33.0854C106.44 33.5779 106.826 33.9434 107.375 33.9434C107.578 33.9442 107.78 33.9006 107.964 33.8159C108.149 33.7312 108.312 33.6074 108.442 33.4535C108.487 33.7872 108.633 33.901 108.898 33.901C108.953 33.9017 109.008 33.8991 109.063 33.8931C109.106 33.8878 109.163 33.8719 109.238 33.8507V33.4932L109.152 33.5065L109.079 33.5091C109.011 33.5091 108.966 33.4932 108.944 33.4614C108.922 33.4297 108.912 33.3926 108.912 33.3423V31.6845C108.912 31.1337 108.431 30.8716 107.745 30.8716C107.145 30.8716 106.621 31.1125 106.6 31.8328H107.064C107.115 31.4197 107.331 31.2953 107.731 31.2953C108.182 31.2953 108.425 31.4409 108.425 31.764C108.425 31.8434 108.417 31.907 108.396 31.9493C108.355 32.0261 108.279 32.0765 108.166 32.0897L107.372 32.1877ZM109.824 30.1274H110.319V30.9325H110.797V31.335H110.319V33.2231C110.319 33.3237 110.356 33.3899 110.427 33.427C110.488 33.4499 110.553 33.4599 110.618 33.4561L110.697 33.4535C110.729 33.4531 110.762 33.4504 110.794 33.4455V33.8375C110.736 33.8536 110.676 33.8643 110.616 33.8692C110.551 33.8792 110.485 33.8836 110.419 33.8825C109.957 33.8825 109.824 33.6283 109.824 33.2549V31.3376H109.419V30.9325H109.822V30.1274H109.824ZM111.407 30.9536H111.904V33.8401H111.407V30.9536ZM111.407 29.8679H111.904V30.4267H111.407V29.8679ZM113.814 33.5197C113.211 33.5197 112.952 33.0589 112.952 32.4393C112.952 31.7958 113.214 31.2767 113.819 31.2767C114.373 31.2767 114.67 31.6422 114.67 32.336C114.673 32.9371 114.467 33.5197 113.814 33.5197ZM113.827 30.8504C112.987 30.8504 112.444 31.4753 112.444 32.4498C112.444 33.3687 112.952 33.9434 113.762 33.9434C114.729 33.9434 115.175 33.2575 115.175 32.3254C115.178 31.3562 114.583 30.8504 113.827 30.8504ZM115.796 30.9325H116.282V31.3429C116.391 31.194 116.534 31.073 116.701 30.9904C116.867 30.9079 117.052 30.8662 117.238 30.8689C117.879 30.8689 118.2 31.1417 118.2 31.9758V33.8375H117.703V32.0076C117.703 31.5309 117.511 31.3059 117.141 31.3059C116.806 31.3059 116.65 31.3959 116.49 31.5813C116.323 31.7746 116.293 31.9414 116.293 32.3174V33.8401H115.793V30.9325H115.796ZM41.2538 17.4879H37.3537C37.1322 16.5107 36.8297 15.7322 35.698 15.335C35.039 15.1046 33.991 15.1363 33.2672 15.6845C32.1355 16.5452 31.9519 18.4651 32.0518 19.3601C32.1355 20.2393 32.4569 21.5131 33.6561 22.093C34.3854 22.4743 35.4819 22.5061 36.1896 22.0745C36.9999 21.6296 37.1862 20.8828 37.3726 20.1042H41.2727C41.4104 21.6455 40.0762 24.0632 37.7588 25.0748C35.7331 25.9513 32.7594 25.7527 30.7851 24.4101C28.5379 22.906 27.9275 20.189 28.0653 18.3671C28.1814 16.1824 29.1618 13.9447 31.7142 12.655C33.5373 11.7255 36.5623 11.7944 38.2666 12.8033C40.3598 14.0268 41.1187 15.5336 41.2538 17.4879ZM45.6968 12.3214V16.6087C46.2721 16.2141 46.5908 15.9467 47.4038 15.6978C48.3491 15.417 49.6671 15.5336 50.5611 16.1797C51.8467 17.1224 51.9791 18.8623 51.9467 19.8394V25.2893H48.2978V21.0655C48.2978 20.136 48.3653 19.2436 47.6576 18.8464C47.2849 18.6292 46.6961 18.5975 46.3585 18.7934C45.6157 19.2754 45.6833 20.1546 45.6833 21.1794V25.2866H42.0668V12.3214H45.6968ZM57.3836 18.5471C57.8752 18.3168 58.6179 18.383 59.1257 18.7113C59.8522 19.1774 60.0548 19.9056 60.0197 20.6021C60.0035 21.1979 59.7334 22.0586 58.9717 22.4876C58.7076 22.6188 58.4157 22.6872 58.1196 22.6872C57.8235 22.6872 57.5316 22.6188 57.2675 22.4876C56.5382 22.0586 56.2168 21.3621 56.1871 20.6021C56.152 19.8739 56.4896 18.9444 57.3836 18.5471ZM57.5024 15.6157C56.3194 15.4356 54.8015 15.7163 53.7347 16.9397C52.4166 18.4147 52.3329 20.851 52.7218 22.1883C53.2431 23.8805 54.156 24.9371 55.8792 25.419C57.2323 25.8163 58.6665 25.4853 59.8684 24.4075V25.2866H63.5309V15.997H59.9333V16.7411C59.0204 15.9652 58.5342 15.7666 57.5024 15.6157ZM73.6485 16.9397C75.1367 15.5521 76.8058 15.3508 78.1401 15.9122C80.1847 16.7729 80.2036 18.1499 80.2036 19.8871V25.2866H76.5222V20.8987C76.5222 19.7547 76.5546 19.0609 75.9983 18.6954C75.8061 18.592 75.59 18.5391 75.3709 18.5419C75.1517 18.5447 74.937 18.6031 74.7477 18.7113C74.1238 19.1271 74.1562 19.7706 74.1562 20.8987V25.2866H70.5235V20.7689C70.5235 20.1387 70.6072 19.0476 69.8996 18.6292C69.7257 18.5286 69.5276 18.4755 69.3257 18.4755C69.1238 18.4755 68.9256 18.5286 68.7517 18.6292C68.0765 19.045 68.1413 20.1201 68.1413 20.8325V25.2893H64.5437V15.997H68.09V16.81C69.3891 15.5839 70.5559 15.3853 71.8064 15.6845C72.4844 15.8487 72.9408 16.1135 73.6485 16.9397ZM86.1807 18.4968C86.5008 18.4273 86.8335 18.4363 87.1492 18.5232C87.4649 18.61 87.7538 18.772 87.9903 18.9947C88.598 19.5905 88.6817 20.5836 88.4981 21.2112C88.4202 21.5543 88.2482 21.8701 88.0007 22.1244C87.7532 22.3788 87.4395 22.562 87.0936 22.6544C86.7883 22.7427 86.4645 22.7492 86.1558 22.6733C85.847 22.5974 85.5647 22.4418 85.338 22.2228C84.7141 21.5766 84.6114 20.6498 84.7978 19.9374C84.9977 19.2251 85.4217 18.6954 86.1807 18.4968ZM87.6689 25.5859C88.7006 25.6018 90.2861 25.0218 91.2152 23.7799C92.3279 22.2731 92.3982 20.0036 91.8742 18.5313C91.3826 17.0907 90.4697 16.1479 89.0355 15.7322C87.7175 15.3667 86.3319 15.5336 84.8464 16.6908V15.9943H81.2488V28.8775H84.8491V24.5902C85.862 25.3211 86.5858 25.57 87.6689 25.5859ZM92.7358 12.3214H96.3685V15.3535H92.7358V12.3214ZM92.7358 15.997H96.3685V25.2893H92.7358V15.997ZM101.889 18.3326C102.172 18.264 102.467 18.2644 102.75 18.3336C103.032 18.4029 103.293 18.5389 103.51 18.7299C104.12 19.2939 104.204 20.3691 104.085 21.0311C103.95 21.6772 103.629 22.2572 102.902 22.5379C102.637 22.6238 102.355 22.6474 102.08 22.6069C101.804 22.5665 101.541 22.463 101.314 22.3048C100.587 21.7593 100.471 20.8166 100.52 20.2022C100.59 19.376 100.893 18.5975 101.889 18.3326ZM99.5583 16.1956C97.7676 17.1383 97.0734 18.7802 96.9735 20.1042C96.8385 21.5475 97.1761 23.1522 98.883 24.4631C100.401 25.6547 102.783 25.8375 104.323 25.3237C105.108 25.0607 105.815 24.6115 106.38 24.016C106.946 23.4204 107.352 22.6971 107.564 21.9103C107.936 20.5359 107.901 18.714 106.516 17.2231C104.979 15.5839 102.516 15.4356 101.314 15.6342C100.844 15.6978 100.115 15.899 99.5583 16.1956ZM118.087 25.2893H114.54V21.182C114.54 20.1228 114.524 19.045 113.846 18.6822C113.656 18.5776 113.442 18.5211 113.223 18.5179C113.005 18.5146 112.789 18.5647 112.596 18.6637C111.785 19.1456 111.885 20.3373 111.885 21.0999V25.2893H108.374V15.997H111.869V16.7597C113.187 15.5839 114.926 15.2714 116.177 15.8302C118.122 16.7252 118.087 18.232 118.087 19.8394V25.2893Z" fill="#434A57"/>
<path d="M2.01713 28.5444C0.565162 25.7269 0.683633 21.6675 2.2706 18.9288C3.96227 15.6938 7.6101 13.244 11.6685 13.0339C12.7347 12.9709 13.8836 13.0181 14.9967 13.0024V14.8982C14.9967 14.8982 13.2692 14.893 12.4454 14.8982C11.0596 14.9035 9.73708 15.1398 8.55788 15.6938C6.7672 16.4764 5.27462 17.7681 4.28504 19.3915C3.29546 21.0149 2.85741 22.8905 3.03103 24.7607C3.40297 28.4971 5.95701 31.5746 9.72331 32.7168C13.5943 33.8432 17.7684 32.4568 20.0331 29.6052C21.1297 28.2214 21.8846 26.5961 21.9838 24.7265L22.0416 23.7944V13.0024H24.0391L24.0033 24.1961C23.8848 28.7676 21.047 32.6485 16.6525 34.2791C12.63 35.7916 7.71204 34.8594 4.68688 32.0892C3.56034 31.087 2.653 29.8823 2.01713 28.5444Z" fill="#3F7FCA"/>
<path d="M4.8147 27.3936C3.43006 24.805 3.88426 21.1148 5.74238 18.9585C6.52187 18.0027 7.51869 17.225 8.65899 16.6832C9.7993 16.1413 11.0539 15.8491 12.3297 15.8282H14.9972V17.7163C13.2905 17.7605 11.5177 17.5366 10.067 18.159C8.95191 18.5828 7.98289 19.2908 7.26757 20.2043C6.55224 21.1178 6.11863 22.201 6.0149 23.3336C5.89203 24.5996 6.18207 25.8709 6.84599 26.9762C7.50992 28.0816 8.51585 28.968 9.72838 29.5161C11.9388 30.5864 14.9806 30.1567 16.7865 28.6202C18.1353 27.503 18.9474 25.9274 19.0162 24.18L19.0437 13H21.0367L21.0092 24.1982C20.9101 27.4561 18.8648 30.1385 15.8092 31.3859C12.7014 32.662 8.81721 31.8807 6.53793 29.6775C5.77816 29.0056 5.28817 28.2556 4.8147 27.3936Z" fill="#3F7FCA"/>
<path d="M7.80522 26.5152C6.83088 25.0015 6.71287 22.7438 7.70641 21.2121C8.47764 19.822 10.2067 18.612 12.0484 18.5966C13.0282 18.5889 13.9806 18.594 14.9933 18.5966V20.4604C14.9933 20.4604 13.374 20.4501 12.6412 20.4604C11.8947 20.4887 11.1893 20.5634 10.6184 20.9753C9.4904 21.6832 8.76583 22.9163 9.03754 24.3373C9.25436 25.6168 10.2479 26.6903 11.6449 27.0378C12.3298 27.1998 13.0505 27.1677 13.7159 26.9454C14.3813 26.7232 14.9615 26.3208 15.3831 25.7893C16.0719 24.9706 16.039 23.7246 16.039 22.5507V13H18.0343L18.0069 23.6912C17.9904 25.7584 16.9804 27.496 15.029 28.4408C13.3987 29.2981 11.0384 29.1385 9.52333 28.1757C8.8332 27.7409 8.2479 27.1752 7.80522 26.5152Z" fill="#3F7FCA"/>
</svg>
