<svg width="40" height="40" viewBox="0 0 40 40" fill="none" xmlns="http://www.w3.org/2000/svg">
<path d="M26.7306 12.5C25.4119 6.375 22.5994 2.5 19.9981 2.5C17.3969 2.5 14.5844 6.375 13.2656 12.5H26.7306Z" fill="#EDCB50"/>
<path d="M12.5 20C12.4997 21.6722 12.6112 23.3426 12.8338 25H27.1663C27.3888 23.3426 27.5003 21.6722 27.5 20C27.5003 18.3278 27.3888 16.6574 27.1663 15H12.8338C12.6112 16.6574 12.4997 18.3278 12.5 20Z" fill="#EDCB50"/>
<path d="M13.2656 27.5C14.5844 33.625 17.3969 37.5 19.9981 37.5C22.5994 37.5 25.4119 33.625 26.7306 27.5H13.2656Z" fill="#EDCB50"/>
<path d="M29.2956 12.5H37.1706C35.9874 9.80721 34.1895 7.42918 31.9213 5.55667C29.6531 3.68416 26.9775 2.36928 24.1094 1.7175C26.4806 3.80375 28.3406 7.66125 29.2956 12.5Z" fill="#EDCB50"/>
<path d="M38.0638 15H29.6887C29.895 16.6587 29.9981 18.3286 29.9975 20C29.9977 21.6715 29.8941 23.3413 29.6875 25H38.0625C38.9741 21.729 38.9741 18.271 38.0625 15H38.0638Z" fill="#EDCB50"/>
<path d="M24.1094 38.2825C26.978 37.6311 29.654 36.3164 31.9227 34.4438C34.1914 32.5713 35.9896 30.1931 37.1731 27.5H29.2981C28.3406 32.3388 26.4806 36.1963 24.1094 38.2825Z" fill="#EDCB50"/>
<path d="M10.7109 27.5H2.83594C4.01943 30.1931 5.81766 32.5713 8.08636 34.4438C10.3551 36.3164 13.0311 37.6311 15.8997 38.2825C13.5259 36.1963 11.6659 32.3388 10.7109 27.5Z" fill="#EDCB50"/>
<path d="M15.8919 1.7175C13.0233 2.36893 10.3472 3.68365 8.07854 5.55618C5.80984 7.42871 4.01161 9.80692 2.82812 12.5H10.7031C11.6606 7.66125 13.5206 3.80375 15.8919 1.7175Z" fill="#EDCB50"/>
<path d="M9.99868 20C9.99852 18.3285 10.102 16.6587 10.3087 15H1.93369C1.0221 18.271 1.0221 21.729 1.93369 25H10.3087C10.102 23.3413 9.99852 21.6715 9.99868 20Z" fill="#EDCB50"/>
</svg>
